<svg width="23" height="23" viewBox="0 0 23 23" fill="none" xmlns="http://www.w3.org/2000/svg">
<path d="M17.8628 0.543945H5.73682C2.97539 0.543945 0.736816 2.78252 0.736816 5.54395V17.6699C0.736816 20.4314 2.97539 22.6699 5.73682 22.6699H17.8628C20.6242 22.6699 22.8628 20.4314 22.8628 17.6699V5.54395C22.8628 2.78252 20.6242 0.543945 17.8628 0.543945Z" fill="#C80A0A"/>
<path d="M18.4537 13.5562C17.7733 13.0482 16.924 12.8206 16.0807 12.9202C15.3279 12.9355 14.5772 13.0063 13.8347 13.1322C12.9386 12.2913 12.1944 11.3021 11.6347 10.2082C12.0437 9.10587 12.2863 7.94886 12.3547 6.77515C12.3547 6.05515 12.1007 4.91016 11.0837 4.91016C10.9379 4.91509 10.7955 4.95648 10.6698 5.03054C10.544 5.1046 10.4388 5.20898 10.3637 5.33415C9.93973 6.09715 10.1097 7.79216 10.9147 9.57216C10.3265 11.2728 9.61839 12.9297 8.79572 14.5302C6.54972 15.4622 5.06672 16.4792 4.93972 17.2852C4.85472 17.6662 5.10973 18.3022 5.99873 18.3022C7.31273 18.3022 8.75372 16.3952 9.85472 14.4462C11.1271 14.0088 12.4308 13.6688 13.7547 13.4292C14.7483 14.3944 16.0584 14.9665 17.4417 15.0392C18.7927 15.0392 18.9197 14.0652 18.4537 13.5562ZM10.5717 5.46216C10.9107 4.95316 11.6717 5.12315 11.6717 6.14015C11.6084 7.18257 11.3942 8.21028 11.0357 9.19115C10.2747 7.41115 10.2757 6.01116 10.5717 5.46216ZM5.18972 17.3282C5.31672 16.6502 6.58972 15.7182 8.57972 14.9122C7.47972 16.7772 6.37972 17.9632 5.69772 17.9632C5.61945 17.9636 5.54208 17.9464 5.47141 17.9127C5.40074 17.8791 5.3386 17.8298 5.28964 17.7688C5.24068 17.7077 5.20617 17.6363 5.18869 17.56C5.17122 17.4837 5.17222 17.4045 5.18972 17.3282ZM13.5377 13.1752C12.3438 13.3976 11.1681 13.7091 10.0207 14.1072C10.6481 12.975 11.1594 11.7822 11.5467 10.5472C12.1038 11.499 12.7726 12.3809 13.5387 13.1742L13.5377 13.1752ZM14.0887 13.3452C15.0826 13.1742 16.0958 13.1456 17.0977 13.2602C18.3267 13.5142 17.9027 14.9982 16.5467 14.6602C15.6351 14.4214 14.7929 13.9714 14.0887 13.3452Z" fill="white"/>
</svg>
