<svg width="16" height="14" viewBox="0 0 16 14" fill="none" xmlns="http://www.w3.org/2000/svg">
<path fill-rule="evenodd" clip-rule="evenodd" d="M4.98244 10.6281C4.98244 10.4936 4.92902 10.3647 4.83394 10.2696C4.73886 10.1745 4.6099 10.1211 4.47544 10.1211H1.09344C0.95884 10.1211 0.829755 10.1746 0.734581 10.2697C0.639406 10.3649 0.585938 10.494 0.585938 10.6286C0.585938 10.7632 0.639406 10.8923 0.734581 10.9874C0.829755 11.0826 0.95884 11.1361 1.09344 11.1361H4.47544C4.5421 11.1361 4.60811 11.1229 4.66969 11.0974C4.73127 11.0719 4.7872 11.0344 4.83429 10.9872C4.88139 10.9401 4.91871 10.884 4.94413 10.8224C4.96955 10.7608 4.98257 10.6948 4.98244 10.6281Z" fill="#515151"/>
<path fill-rule="evenodd" clip-rule="evenodd" d="M10.7324 3.18815C10.7324 3.05369 10.7858 2.92473 10.8809 2.82965C10.976 2.73457 11.105 2.68115 11.2394 2.68115H14.6214C14.756 2.68115 14.8851 2.73462 14.9803 2.8298C15.0755 2.92497 15.1289 3.05406 15.1289 3.18865C15.1289 3.32325 15.0755 3.45233 14.9803 3.54751C14.8851 3.64268 14.756 3.69615 14.6214 3.69615H11.2394C11.1728 3.69615 11.1067 3.68301 11.0452 3.65746C10.9836 3.63192 10.9277 3.59449 10.8806 3.5473C10.8335 3.50012 10.7961 3.44411 10.7707 3.38248C10.7453 3.32085 10.7323 3.25482 10.7324 3.18815Z" fill="#515151"/>
<path fill-rule="evenodd" clip-rule="evenodd" d="M15.1289 10.6281C15.1289 10.4936 15.0755 10.3647 14.9804 10.2696C14.8853 10.1745 14.7563 10.1211 14.6219 10.1211H8.53387C8.39927 10.1211 8.27019 10.1746 8.17501 10.2697C8.07984 10.3649 8.02637 10.494 8.02637 10.6286C8.02637 10.7632 8.07984 10.8923 8.17501 10.9874C8.27019 11.0826 8.39927 11.1361 8.53387 11.1361H14.6209C14.6876 11.1362 14.7537 11.1232 14.8154 11.0977C14.8771 11.0722 14.9332 11.0348 14.9804 10.9876C15.0276 10.9404 15.065 10.8843 15.0905 10.8227C15.1159 10.761 15.129 10.6948 15.1289 10.6281Z" fill="#515151"/>
<path fill-rule="evenodd" clip-rule="evenodd" d="M0.586915 3.18815C0.586915 3.05369 0.640331 2.92473 0.735412 2.82965C0.830493 2.73457 0.95945 2.68115 1.09392 2.68115H7.18191C7.31651 2.68115 7.4456 2.73462 7.54077 2.8298C7.63595 2.92497 7.68941 3.05406 7.68941 3.18865C7.68941 3.32325 7.63595 3.45233 7.54077 3.54751C7.4456 3.64268 7.31651 3.69615 7.18191 3.69615H1.09392C1.02725 3.69615 0.961241 3.68301 0.899663 3.65746C0.838086 3.63192 0.78215 3.59449 0.735058 3.5473C0.687965 3.50012 0.650641 3.44411 0.625221 3.38248C0.5998 3.32085 0.586784 3.25482 0.586915 3.18815Z" fill="#515151"/>
<path fill-rule="evenodd" clip-rule="evenodd" d="M6.50475 9.03793C6.80577 9.03793 7.10004 9.12719 7.35033 9.29443C7.60062 9.46167 7.7957 9.69937 7.9109 9.97748C8.02609 10.2556 8.05623 10.5616 7.99751 10.8569C7.93878 11.1521 7.79382 11.4233 7.58097 11.6361C7.36811 11.849 7.09692 11.994 6.80168 12.0527C6.50644 12.1114 6.20042 12.0813 5.92231 11.9661C5.6442 11.8509 5.40649 11.6558 5.23925 11.4055C5.07201 11.1552 4.98275 10.861 4.98275 10.5599C4.98275 10.1563 5.1431 9.76914 5.42853 9.48371C5.71397 9.19828 6.10109 9.03793 6.50475 9.03793ZM9.04075 10.5599C9.04075 10.0584 8.89202 9.56804 8.61336 9.151C8.3347 8.73396 7.93863 8.40891 7.47524 8.21697C7.01184 8.02502 6.50194 7.9748 6.01 8.07266C5.51807 8.17051 5.06619 8.41204 4.71153 8.7667C4.35686 9.12137 4.11533 9.57324 4.01748 10.0652C3.91963 10.5571 3.96985 11.067 4.16179 11.5304C4.35374 11.9938 4.67878 12.3899 5.09582 12.6685C5.51287 12.9472 6.00318 13.0959 6.50475 13.0959C6.83787 13.0961 7.16775 13.0306 7.47554 12.9032C7.78334 12.7758 8.06303 12.589 8.29862 12.3535C8.53422 12.118 8.72111 11.8384 8.84861 11.5306C8.97612 11.2229 9.04175 10.893 9.04175 10.5599H9.04075Z" fill="#515151"/>
<path fill-rule="evenodd" clip-rule="evenodd" d="M9.20983 1.59799C8.90881 1.59799 8.61454 1.68725 8.36425 1.85449C8.11396 2.02173 7.91888 2.25943 7.80368 2.53754C7.68849 2.81565 7.65835 3.12167 7.71707 3.41691C7.7758 3.71215 7.92076 3.98335 8.13361 4.1962C8.34647 4.40906 8.61766 4.55401 8.9129 4.61274C9.20814 4.67147 9.51416 4.64133 9.79227 4.52613C10.0704 4.41093 10.3081 4.21586 10.4753 3.96556C10.6426 3.71527 10.7318 3.42101 10.7318 3.11999C10.7318 2.71633 10.5715 2.3292 10.286 2.04377C10.0006 1.75834 9.61349 1.59799 9.20983 1.59799ZM6.67383 3.11999C6.67383 2.61841 6.82256 2.1281 7.10122 1.71106C7.37988 1.29402 7.77595 0.968971 8.23934 0.777027C8.70274 0.585083 9.21264 0.534862 9.70458 0.632714C10.1965 0.730566 10.6484 0.972097 11.0031 1.32676C11.3577 1.68143 11.5992 2.1333 11.6971 2.62524C11.795 3.11717 11.7447 3.62708 11.5528 4.09047C11.3608 4.55386 11.0358 4.94993 10.6188 5.22859C10.2017 5.50725 9.7114 5.65599 9.20983 5.65599C8.53724 5.65599 7.8922 5.3888 7.4166 4.91321C6.94101 4.43762 6.67383 3.79257 6.67383 3.11999Z" fill="#515151"/>
</svg>
