<svg width="22" height="19" viewBox="0 0 22 19" fill="none" xmlns="http://www.w3.org/2000/svg">
<path d="M0.4375 2.5H13.5625C13.804 2.5 14 2.053 14 1.5C14 0.947 13.804 0.5 13.5625 0.5H0.4375C0.196 0.5 0 0.947 0 1.5C0 2.053 0.195563 2.5 0.4375 2.5Z" fill="#283181"/>
<path d="M7.46875 18.5H21.5312C21.79 18.5 22 18.053 22 17.5C22 16.947 21.79 16.5 21.5312 16.5H7.46875C7.21 16.5 7 16.947 7 17.5C7 18.053 7.20953 18.5 7.46875 18.5Z" fill="#283181"/>
<path d="M0.6875 10.5H21.3125C21.692 10.5 22 10.053 22 9.5C22 8.947 21.692 8.5 21.3125 8.5H0.6875C0.308 8.5 0 8.947 0 9.5C0 10.053 0.307313 10.5 0.6875 10.5Z" fill="#283181"/>
</svg>
