<svg width="3" height="18" viewBox="0 0 3 18" fill="none" xmlns="http://www.w3.org/2000/svg">
<path d="M1.5 17.9937C2.32843 17.9937 3 17.3221 3 16.4937C3 15.6652 2.32843 14.9937 1.5 14.9937C0.671573 14.9937 0 15.6652 0 16.4937C0 17.3221 0.671573 17.9937 1.5 17.9937Z" fill="#565F72"/>
<path d="M1.5 10.9058C2.32843 10.9058 3 10.2342 3 9.40576C3 8.57733 2.32843 7.90576 1.5 7.90576C0.671573 7.90576 0 8.57733 0 9.40576C0 10.2342 0.671573 10.9058 1.5 10.9058Z" fill="#565F72"/>
<path d="M1.5 3.81787C2.32843 3.81787 3 3.1463 3 2.31787C3 1.48944 2.32843 0.817871 1.5 0.817871C0.671573 0.817871 0 1.48944 0 2.31787C0 3.1463 0.671573 3.81787 1.5 3.81787Z" fill="#565F72"/>
</svg>
