<svg xmlns="http://www.w3.org/2000/svg" width="16.029" height="16.029" viewBox="0 0 16.029 16.029">
  <path id="ic_phone" d="M9.67,5.236l.61,1.092a2.66,2.66,0,0,1-.537,3.145h0s-1.051,1.051.854,2.956,2.955.855,2.956.854h0a2.66,2.66,0,0,1,3.145-.537l1.092.61a2.649,2.649,0,0,1,.356,4.226,4.355,4.355,0,0,1-2.814,1.438,10.493,10.493,0,0,1-7.888-3.438A10.493,10.493,0,0,1,4.006,7.694,4.355,4.355,0,0,1,5.444,4.88,2.649,2.649,0,0,1,9.67,5.236Z" transform="translate(-3.499 -3.498)" fill="none" stroke="#b2b3b2" stroke-linecap="round" stroke-width="1"/>
</svg>
