<svg width="20" height="20" viewBox="0 0 20 20" fill="none" xmlns="http://www.w3.org/2000/svg">
<path d="M13.3333 11.6667C14.4384 11.6667 15.4982 12.1057 16.2796 12.8871C17.061 13.6685 17.5 14.7283 17.5 15.8334V16.6667C17.5 17.1088 17.3244 17.5327 17.0118 17.8453C16.6993 18.1578 16.2754 18.3334 15.8333 18.3334H4.16667C3.72464 18.3334 3.30072 18.1578 2.98816 17.8453C2.67559 17.5327 2.5 17.1088 2.5 16.6667V15.8334C2.5 14.7283 2.93899 13.6685 3.72039 12.8871C4.50179 12.1057 5.5616 11.6667 6.66667 11.6667H13.3333ZM16.6667 6.66675C16.8877 6.66675 17.0996 6.75455 17.2559 6.91083C17.4122 7.06711 17.5 7.27907 17.5 7.50008V8.33341H18.3333C18.5543 8.33341 18.7663 8.42121 18.9226 8.57749C19.0789 8.73377 19.1667 8.94573 19.1667 9.16675C19.1667 9.38776 19.0789 9.59972 18.9226 9.756C18.7663 9.91228 18.5543 10.0001 18.3333 10.0001H17.5V10.8334C17.5 11.0544 17.4122 11.2664 17.2559 11.4227C17.0996 11.579 16.8877 11.6667 16.6667 11.6667C16.4457 11.6667 16.2337 11.579 16.0774 11.4227C15.9211 11.2664 15.8333 11.0544 15.8333 10.8334V10.0001H15C14.779 10.0001 14.567 9.91228 14.4107 9.756C14.2545 9.59972 14.1667 9.38776 14.1667 9.16675C14.1667 8.94573 14.2545 8.73377 14.4107 8.57749C14.567 8.42121 14.779 8.33341 15 8.33341H15.8333V7.50008C15.8333 7.27907 15.9211 7.06711 16.0774 6.91083C16.2337 6.75455 16.4457 6.66675 16.6667 6.66675ZM10 1.66675C11.1051 1.66675 12.1649 2.10573 12.9463 2.88714C13.7277 3.66854 14.1667 4.72835 14.1667 5.83341C14.1667 6.93848 13.7277 7.99829 12.9463 8.77969C12.1649 9.56109 11.1051 10.0001 10 10.0001C8.89493 10.0001 7.83512 9.56109 7.05372 8.77969C6.27232 7.99829 5.83333 6.93848 5.83333 5.83341C5.83333 4.72835 6.27232 3.66854 7.05372 2.88714C7.83512 2.10573 8.89493 1.66675 10 1.66675Z" fill="#283181"/>
</svg>
