<svg width="30" height="20" viewBox="0 0 30 20" fill="none" xmlns="http://www.w3.org/2000/svg">
<path d="M26.6667 0H3.33333C2.44928 0 1.60143 0.324175 0.976311 0.90121C0.35119 1.47824 0 2.26087 0 3.07692L0 16.9231C0 17.7391 0.35119 18.5218 0.976311 19.0988C1.60143 19.6758 2.44928 20 3.33333 20H26.6667C27.5507 20 28.3986 19.6758 29.0237 19.0988C29.6488 18.5218 30 17.7391 30 16.9231V3.07692C30 2.26087 29.6488 1.47824 29.0237 0.90121C28.3986 0.324175 27.5507 0 26.6667 0Z" fill="#006C35"/>
<path d="M7.43229 7.03891C7.95895 7.08557 7.66812 6.20746 7.85895 6.04802C7.89479 5.96946 7.96145 5.96868 7.96645 6.06824V6.81335C7.96145 7.05602 8.13229 7.1268 8.26479 7.17735C8.40312 7.16724 8.49479 7.17191 8.54895 7.29713L8.61395 8.58668C8.61395 8.58668 8.93395 8.67224 8.94895 7.86102C8.96479 7.38502 8.84729 6.9868 8.91645 6.89424C8.91895 6.80324 9.04312 6.7978 9.12979 6.84213C9.26729 6.93235 9.32895 7.04435 9.54229 7.00002C9.86812 6.9168 10.0631 6.76902 10.0681 6.53568C10.049 6.31402 10.0223 6.09235 9.91979 5.87068C9.93395 5.83024 9.85729 5.72602 9.87145 5.68557C9.92979 5.77113 10.019 5.76413 10.039 5.68557C9.98395 5.51524 9.89812 5.35191 9.75812 5.28113C9.64312 5.18624 9.47479 5.20568 9.41312 5.40324C9.38478 5.63035 9.50145 5.90102 9.67812 6.12113C9.71562 6.20746 9.76895 6.35057 9.74562 6.47968C9.65145 6.52946 9.55645 6.50924 9.47812 6.43146C9.47812 6.43146 9.21895 6.25024 9.21895 6.2098C9.28812 5.79913 9.23479 5.75246 9.19645 5.63891C9.16979 5.4818 9.08979 5.43124 9.02479 5.32391C8.95979 5.26013 8.87229 5.26013 8.83062 5.32391C8.71562 5.50902 8.76895 5.90724 8.85229 6.08535C8.91145 6.24868 9.00312 6.35213 8.95979 6.35213C8.92395 6.44468 8.85062 6.42291 8.79729 6.31635C8.72062 6.09546 8.70562 5.76646 8.70562 5.61791C8.68228 5.43435 8.65729 5.04157 8.52812 4.94202C8.44895 4.84168 8.33145 4.88991 8.29062 4.98246C8.28229 5.16446 8.28062 5.34724 8.30312 5.51602C8.39145 5.8108 8.41979 6.07057 8.46312 6.37313C8.47479 6.77835 8.21229 6.54891 8.22395 6.34824C8.28479 6.08768 8.26895 5.67702 8.21479 5.5728C8.17229 5.46935 8.12145 5.44291 8.01812 5.46002C7.93645 5.4538 7.72479 5.67002 7.66479 6.0278C7.66479 6.0278 7.61395 6.21213 7.59229 6.37624C7.56312 6.56135 7.43312 6.69202 7.34145 6.35057C7.26229 6.10246 7.21395 5.49035 7.08145 5.63346C7.04312 6.1118 6.99729 6.95335 7.43229 7.03891Z" fill="white"/>
<path d="M8.22465 7.38818C7.79132 7.39596 7.15715 7.91941 7.13965 8.20952C7.59632 8.00418 8.04548 7.80663 8.51048 7.59507C8.43548 7.49007 8.50632 7.39596 8.22465 7.38818Z" fill="white"/>
<path d="M10.6142 8.95723C10.815 8.33268 10.5817 7.87223 10.6909 7.87457C10.9217 8.10712 11.245 7.90568 11.3159 7.82479C11.3467 7.78435 11.4225 7.7579 11.4759 7.81079C11.6567 7.93212 11.975 7.87457 12.0409 7.66146C12.0826 7.44743 12.1082 7.23093 12.1175 7.01357C11.97 7.05635 11.86 7.08512 11.85 7.1419L11.8192 7.32701C11.8067 7.3869 11.6792 7.38923 11.6742 7.31301C11.6184 7.07579 11.3867 7.04468 11.2467 7.41257C11.1525 7.48412 10.9825 7.49812 10.9642 7.39157C10.9867 7.14501 10.88 7.11157 10.6667 7.22746C10.5984 6.73823 10.5292 6.27079 10.4609 5.78157C10.55 5.77923 10.6317 5.84068 10.7125 5.74579C10.6234 5.48679 10.435 4.9579 10.3309 4.91979C10.28 4.86223 10.2367 4.89801 10.1709 4.91279C10.0592 4.94623 9.95502 5.03646 9.98752 5.21146C10.12 5.96201 10.2067 6.53368 10.3384 7.28423C10.3584 7.37212 10.28 7.48801 10.1784 7.47635C10.0059 7.36746 9.96252 7.14657 9.66752 7.1559C9.45336 7.15823 9.20919 7.37446 9.17919 7.58368C9.14336 7.74935 9.13086 7.92979 9.17919 8.07523C9.32919 8.24323 9.51002 8.2269 9.66752 8.18879C9.79669 8.13901 9.90419 8.01768 9.94919 8.04646C9.98002 8.08146 9.95669 8.48046 9.33919 8.7869C8.96502 8.94323 8.66752 8.97901 8.50752 8.69435C8.40836 8.51623 8.51502 7.83957 8.27086 7.99668C7.54836 9.73501 9.96252 9.97612 10.2325 8.06823C10.2584 7.98968 10.36 7.91112 10.3775 8.03946C10.3217 9.76768 8.51002 9.88668 8.20252 9.34301C8.12586 9.21468 8.10336 8.93001 8.09586 8.7589C8.05002 8.41901 7.85919 8.54968 7.82919 8.88646C7.79836 9.0739 7.80669 9.12679 7.80669 9.30646C7.90252 10.6715 10.2359 10.085 10.6142 8.95723ZM9.71419 7.77657C9.69919 7.80301 9.63336 7.79212 9.58502 7.79212C9.53002 7.78979 9.50419 7.78123 9.47086 7.74001C9.45586 7.69335 9.50252 7.64901 9.52336 7.61401C9.54919 7.57279 9.68836 7.53001 9.73752 7.64512C9.74645 7.667 9.74899 7.6907 9.74489 7.71379C9.74079 7.73688 9.7302 7.75855 9.71419 7.77657Z" fill="white"/>
<path d="M11.3349 6.2294C11.4799 6.17962 12.1674 5.44618 12.1674 5.44618C12.1315 5.4174 12.0999 5.3964 12.064 5.36762C12.0257 5.33651 12.0299 5.3054 12.064 5.27507C12.234 5.18251 12.1799 4.97951 12.0907 4.88696C12.0329 4.86084 11.9695 4.84754 11.9053 4.84808C11.8411 4.84862 11.778 4.86299 11.7207 4.89007C11.6015 4.99662 11.5732 5.16773 11.6674 5.27507C11.759 5.31551 11.8507 5.40184 11.7899 5.44929C11.509 5.72929 10.739 6.21229 10.8282 6.2294C10.8474 6.25273 11.3199 6.25196 11.3349 6.2294ZM11.844 5.07751C11.8882 5.0674 11.9449 5.10396 11.9715 5.1584C11.9982 5.21285 11.984 5.26496 11.9407 5.27507H11.939C11.8957 5.28518 11.839 5.24862 11.8124 5.19418C11.7865 5.13896 11.8007 5.08762 11.844 5.07751ZM7.38487 9.53418C7.27153 9.74962 7.22403 9.60185 7.21403 9.48129C7.20132 9.27882 7.21222 9.07567 7.24653 8.8754C7.27487 8.70429 7.24653 8.7564 7.1882 8.82562C6.9307 9.20829 6.9082 9.78073 7.0507 9.95107C7.1257 10.032 7.24987 10.0677 7.34237 10.0413C7.50403 9.97596 7.57487 9.66951 7.53653 9.55829C7.48153 9.47973 7.43903 9.46729 7.38487 9.53418ZM15.869 5.48351C16.1657 5.85529 16.4474 6.23407 16.7232 6.61984C16.7776 6.95325 16.8165 7.28173 16.8399 7.60529C16.8857 8.23062 16.899 8.90729 16.8574 9.56607C16.9824 9.57073 17.1849 9.37629 17.2549 9.0924C17.3007 8.69962 17.2382 8.0004 17.234 7.76862C17.2285 7.62335 17.221 7.47816 17.2115 7.33307C17.5399 7.83396 17.8599 8.35818 18.1724 8.94073C18.2865 8.89096 18.2615 8.29518 18.1949 8.21118C17.9449 7.71107 17.6007 7.2164 17.4907 7.02662C17.4499 6.95662 17.3107 6.75751 17.1449 6.52962C17.1301 6.34779 17.1067 6.16665 17.0749 5.98673C17.0232 5.65384 17.2224 6.02329 17.1949 5.82962C17.1307 5.49673 16.9324 5.27196 16.7007 4.96707C16.6257 4.86829 16.6282 4.84807 16.5124 4.99118C16.4722 5.07715 16.4534 5.17047 16.4574 5.26418C16.4208 5.21484 16.3821 5.16684 16.3415 5.12029L15.9624 4.81851C15.8782 4.76251 15.6732 4.6614 15.6365 4.8294C15.6204 4.9472 15.6266 5.06673 15.6549 5.18251C15.6765 5.26573 15.8057 5.40418 15.869 5.48351ZM16.4857 5.46485C16.5015 5.5294 16.5182 5.59396 16.529 5.66007L16.5415 5.72307C16.5064 5.67756 16.47 5.63296 16.4324 5.58929C16.2957 5.4384 16.409 5.47107 16.4857 5.46485Z" fill="white"/>
<path d="M18.2656 9.09471C17.9756 9.37705 17.5572 9.72471 17.1022 9.88571C17.0531 9.93705 17.2239 10.1572 17.4439 10.1572C17.8131 10.1167 18.1381 9.92305 18.4389 9.4136C18.5197 9.29538 18.6614 9.04105 18.6647 8.84349C18.6922 7.68771 18.6031 6.78782 18.4172 5.95249C18.4048 5.88546 18.4082 5.81671 18.4272 5.75105C18.4506 5.7246 18.5322 5.75105 18.5756 5.68571C18.6381 5.62505 18.4081 5.12727 18.2764 4.93593C18.2297 4.85038 18.2139 4.79282 18.1364 4.94605C18.0547 5.07049 18.0006 5.28749 18.0072 5.48971C18.1831 6.6276 18.2372 7.62393 18.3522 8.76182C18.3614 8.87149 18.3439 9.03171 18.2656 9.09471ZM23.1239 6.20916C23.1114 6.12827 23.0731 5.94005 23.0881 5.91593C23.1114 5.85838 23.2322 5.92216 23.2756 5.85605C23.3389 5.79616 22.9639 5.3466 22.8331 5.15527C22.7856 5.06971 22.7697 5.01216 22.6922 5.16538C22.6106 5.28982 22.5822 5.51305 22.6147 5.70905C22.8106 6.94493 22.9564 7.8736 22.9864 8.96949C22.9689 9.07371 22.9656 9.12971 22.9131 9.26038C22.7972 9.39882 22.6697 9.57149 22.5489 9.65549C22.4289 9.73871 22.1731 9.81882 22.0889 9.88027C21.8247 10.0242 21.8239 10.1883 22.0389 10.1937C22.4072 10.1533 22.8439 10.1253 23.1447 9.7006C23.2256 9.58238 23.3214 9.26116 23.3256 9.0636C23.3531 7.90782 23.3097 7.04449 23.1239 6.20916ZM20.3314 7.17127C20.3347 7.0126 20.3506 6.8026 20.3597 6.67116C20.3639 6.62216 20.3764 6.56693 20.4264 6.55449C20.4772 6.54205 20.5672 6.60271 20.5681 6.55138C20.5581 6.45105 20.5364 6.30171 20.4756 6.23093C20.3922 6.11582 20.1714 6.14382 20.1322 6.32427C20.1331 6.39116 20.1656 6.42693 20.1597 6.4876C20.1497 6.52182 20.1114 6.54516 20.0206 6.50471C20.0356 6.49227 19.9614 6.3966 19.9614 6.3966C19.8906 6.35616 19.7956 6.39893 19.7347 6.43549C19.713 6.47478 19.7 6.51779 19.6965 6.56191C19.6931 6.60603 19.6993 6.65034 19.7147 6.69216C19.8147 6.86871 20.1639 7.16816 20.3314 7.17127Z" fill="white"/>
<path d="M20.2141 5.81878L20.9583 6.66889C21.0125 7.31133 21.0266 7.83711 21.08 8.47955C21.0725 8.75178 20.9825 8.989 20.8966 9.02322C20.8966 9.02322 20.7675 9.09322 20.6808 9.01622C20.6175 8.99211 20.365 8.62344 20.365 8.62344C20.2358 8.513 20.1508 8.54411 20.0591 8.62344C19.8058 8.85133 19.6916 9.27911 19.52 9.57311C19.475 9.63922 19.35 9.69522 19.2108 9.56844C18.8583 9.11811 19.065 8.478 19.0216 8.64289C18.7075 8.97344 18.8458 9.52022 18.9166 9.63844C19.02 9.83133 19.1041 9.95578 19.3058 10.0514C19.4891 10.1774 19.6325 10.0981 19.7108 10.0102C19.8958 9.83055 19.8983 9.37555 19.985 9.28378C20.045 9.11811 20.1991 9.14611 20.2733 9.22C20.3418 9.30897 20.4317 9.3817 20.5358 9.43233C20.7083 9.57466 20.9141 9.60033 21.1166 9.47044C21.255 9.39811 21.3458 9.304 21.4266 9.11811C21.5166 8.89411 21.4675 7.86433 21.4491 7.24678C21.5783 7.40233 21.7041 7.56489 21.8316 7.72744C21.8875 8.24311 21.9191 8.75644 21.9008 9.28066C21.8875 9.38566 22.2925 8.96955 22.2891 8.772V8.33177C22.4841 8.60555 22.6741 8.88789 22.8525 9.18655C22.9641 9.13211 22.9275 8.54489 22.8566 8.464C22.6508 8.142 22.3766 7.80678 22.1875 7.56722C22.175 7.53689 22.1683 7.50266 22.1533 7.47389C22.0775 7.30978 22.125 7.17755 22.0891 7.00333C22.0541 6.82833 22.0633 6.567 22.0091 6.35933C21.9941 6.27844 21.9491 6.01866 21.9625 5.99455C21.9841 5.93622 22.0675 5.99611 22.1083 5.92922C22.1691 5.867 21.8975 5.20978 21.7591 5.02155C21.7091 4.93755 21.6191 4.96633 21.5075 5.10322C21.405 5.19344 21.4433 5.39878 21.4825 5.594C21.58 6.06689 21.6616 6.52033 21.7316 6.96911C21.5818 6.78317 21.4304 6.59831 21.2775 6.41455L21.2708 6.38033C21.2708 6.37178 21.2483 5.97278 21.2283 5.87789C21.225 5.83978 21.215 5.82811 21.2583 5.83277C21.3041 5.86855 21.31 5.87089 21.3391 5.88333C21.3858 5.89111 21.4266 5.81722 21.3991 5.74955L20.9683 5.00911C20.9341 4.97722 20.8891 4.943 20.835 5.01766C20.8012 5.04495 20.7741 5.07876 20.7557 5.11677C20.7373 5.15477 20.7279 5.19606 20.7283 5.23778C20.7416 5.41278 20.7741 5.59166 20.7866 5.76744L20.805 5.86233C20.7858 5.84133 20.7625 5.81489 20.7525 5.80555C20.3866 5.44622 20.9208 5.74722 20.6825 5.46955C20.4808 5.26266 20.4225 5.19811 20.2491 5.07366C20.1625 5.02155 20.11 4.922 20.0816 5.09155C20.0683 5.24028 20.0641 5.3896 20.0691 5.53878C20.0691 5.61033 20.1466 5.741 20.2141 5.81878ZM12.7966 6.658C13.0066 6.73889 13.1408 6.36555 13.2275 5.95644C13.2858 5.84133 13.3308 5.82889 13.3608 5.888C13.3533 6.43244 13.4025 6.553 13.5525 6.71866C13.8866 6.95977 14.1633 6.749 14.1858 6.72878L14.4458 6.48611C14.5033 6.42933 14.5808 6.42544 14.6625 6.476C14.7425 6.54289 14.7316 6.65955 14.9016 6.74044C15.045 6.79411 15.3516 6.75289 15.4225 6.63778C15.5183 6.48533 15.5416 6.43244 15.585 6.37489C15.6533 6.29011 15.77 6.32822 15.77 6.35466C15.7591 6.40211 15.6908 6.44955 15.7375 6.53433C15.8191 6.59111 15.8375 6.55455 15.8858 6.54211C16.0558 6.46589 16.1825 6.12211 16.1825 6.12211C16.19 5.99378 16.1133 6.00466 16.0633 6.03111C15.9983 6.06766 15.9941 6.08011 15.9291 6.11744C15.8458 6.12911 15.685 6.18044 15.6058 6.06533C15.5241 5.92689 15.5225 5.734 15.4608 5.59478C15.4608 5.58466 15.3525 5.37466 15.4533 5.36144C15.5041 5.37 15.6116 5.39644 15.6291 5.31244C15.6816 5.23 15.515 4.99511 15.4016 4.87611C15.3025 4.775 15.165 4.76255 15.0325 4.866C14.9391 4.94611 14.9525 5.03478 14.9341 5.11955C14.9185 5.17935 14.9182 5.24176 14.9334 5.30167C14.9487 5.36157 14.9789 5.41724 15.0216 5.46411C15.1141 5.63444 15.2833 5.85455 15.2275 6.16255C15.2275 6.16255 15.1291 6.30878 14.9566 6.29011C14.885 6.27533 14.7683 6.24655 14.7066 5.81878C14.66 5.49444 14.7183 5.041 14.5708 4.82866C14.5175 4.70033 14.4791 4.57666 14.3491 4.796C14.3141 4.88233 14.1641 5.013 14.2733 5.28289C14.3625 5.45322 14.3983 5.73089 14.3583 6.04044C14.2966 6.12833 14.2833 6.15789 14.2025 6.24577C14.0891 6.35933 13.9666 6.33055 13.8725 6.28777C13.7841 6.23255 13.7158 6.20378 13.6758 6.028C13.6833 5.748 13.7 5.28911 13.645 5.19189C13.5641 5.041 13.4308 5.09544 13.3733 5.14133C13.0991 5.37544 12.9641 5.76978 12.8816 6.08322C12.8058 6.31189 12.725 6.24655 12.6683 6.154C12.53 6.03266 12.5208 5.08611 12.3533 5.24244C12.0841 5.95333 12.505 6.73422 12.7966 6.658Z" fill="white"/>
<path d="M16.7805 8.1857L16.7005 8.14292L15.133 8.13592C15.0522 8.10715 15.0763 8.08226 15.133 8.06204C15.5072 8.01459 16.173 7.91348 16.2172 7.31692C16.2097 7.00659 16.0738 6.80281 15.6655 6.74681C15.3663 6.76859 15.1522 7.04004 15.1863 7.33792C15.1722 7.41881 15.2147 7.57592 15.1272 7.59381C14.5513 7.64281 13.9238 7.97881 13.903 8.21992C13.868 8.24248 13.7897 8.17715 13.7997 8.07448C13.7717 7.63534 13.6363 7.20803 13.4038 6.82537C13.2222 6.65581 13.2788 6.71181 13.1572 6.79192C13.0788 6.87592 13.0647 6.93348 13.0688 7.1007C13.0688 7.10692 13.2155 7.48881 13.3397 7.75637C13.4222 8.03092 13.4997 8.34437 13.4438 8.6407C13.2505 9.0327 12.8613 9.38426 12.4863 9.57481C12.293 9.63315 12.1272 9.61215 12.0863 9.5717C11.9672 9.49704 11.973 9.35937 11.9822 9.35704C12.298 9.15093 12.6597 8.98526 12.943 8.4307C13.0263 8.21915 13.0513 8.09081 12.9688 7.76337C12.9465 7.64779 12.8896 7.54047 12.8047 7.45381C12.8555 7.4227 13.0013 7.52615 13.0238 7.4647C12.9817 7.28542 12.8861 7.12094 12.748 6.99026C12.6355 6.89459 12.513 6.8837 12.4097 6.97159C12.293 7.03226 12.268 7.24848 12.3238 7.43826C12.3855 7.58137 12.553 7.60548 12.673 7.89248C12.673 7.8987 12.7163 8.10715 12.6547 8.18881C12.6055 8.33192 11.968 8.79937 11.933 8.82037C11.9155 8.84059 11.923 8.81026 11.9205 8.73248C11.9163 8.63759 11.9613 8.41359 11.9488 8.41204C11.7413 8.53726 11.6722 8.9207 11.6347 9.03426C11.1097 9.37259 10.5155 9.62459 10.1722 9.96837C9.993 10.2289 11.4038 9.66892 11.568 9.60126C11.6047 9.62615 11.6005 9.74359 11.6988 9.84859C11.8455 10.0337 12.1555 10.148 12.4597 10.0773C12.968 9.90537 13.2622 9.58181 13.5605 9.22326C13.603 9.16492 13.6697 9.12059 13.7313 9.16493C13.9363 9.59348 14.5288 9.89681 15.293 9.9287C15.4705 9.72726 15.3847 9.63004 15.313 9.58804C15.313 9.58181 14.9355 9.44804 14.878 9.31426C14.843 9.19292 14.928 9.08637 15.098 9.00548C15.5888 8.95026 16.0713 8.88881 16.5388 8.74881C16.5438 8.60259 16.6347 8.38326 16.6972 8.28837C16.7572 8.19192 16.7897 8.2207 16.7805 8.1857ZM15.4913 7.27415C15.5147 7.23759 15.5922 7.23915 15.6647 7.27881C15.7372 7.31848 15.778 7.37992 15.7538 7.41648C15.7305 7.45381 15.6522 7.45148 15.5797 7.41181C15.5072 7.37215 15.468 7.31148 15.4913 7.27415ZM14.8605 8.75193C14.6922 8.80559 14.5305 8.84759 14.5305 9.0747C14.593 9.39048 14.4447 9.28237 14.3572 9.23881C14.2538 9.16959 13.963 9.00237 13.9213 8.64148C13.9147 8.55515 13.9872 8.48281 14.103 8.48281C14.2772 8.52715 14.5347 8.53026 14.758 8.55204C14.9405 8.56292 15.0313 8.6967 14.8605 8.75193ZM9.05467 5.24804C9.23467 5.32892 9.57467 5.2947 9.55967 5.02248C9.55967 4.99837 9.553 4.91748 9.5505 4.8957C9.51383 4.81559 9.41383 4.83504 9.3905 4.91826C9.383 4.94548 9.403 4.98904 9.37717 5.00304C9.36217 5.01704 9.30467 5.00848 9.30717 4.93381C9.30717 4.9097 9.288 4.88404 9.27717 4.86926C9.2655 4.86226 9.25883 4.85992 9.238 4.85992C9.213 4.8607 9.213 4.86692 9.19967 4.88715C9.19383 4.90659 9.1855 4.92681 9.1855 4.94937C9.18217 4.97581 9.17133 4.98515 9.1505 4.98981C9.12717 4.98981 9.13217 4.99215 9.11383 4.98048C9.10217 4.96881 9.088 4.96415 9.088 4.9447C9.08762 4.922 9.08369 4.89946 9.07633 4.87781C9.06578 4.86641 9.05106 4.85889 9.03217 4.85526C8.93383 4.85526 8.92717 4.96026 8.933 5.0007C8.92383 5.0077 8.9205 5.19592 9.05467 5.24804Z" fill="white"/>
<path d="M14.5931 7.02119C14.5931 6.99708 14.5739 6.97219 14.5631 6.95663C14.5514 6.94963 14.5447 6.9473 14.5239 6.9473C14.4989 6.94808 14.4997 6.9543 14.4856 6.97452C14.4797 6.99474 14.4714 7.01419 14.4714 7.03674C14.4689 7.06396 14.4572 7.0733 14.4364 7.07719C14.4131 7.07719 14.4181 7.07952 14.3989 7.06863C14.3872 7.05696 14.3731 7.0523 14.3731 7.03285C14.3727 7.01015 14.3688 6.98761 14.3614 6.96596C14.3508 6.95456 14.3361 6.9473 14.3172 6.94419C14.2189 6.94419 14.2122 7.04919 14.2172 7.08885C14.2097 7.09663 14.2056 7.28407 14.3397 7.33696C14.5206 7.41707 14.9497 7.37041 14.8447 7.11141C14.8429 7.06882 14.8399 7.02629 14.8356 6.98385C14.7989 6.90374 14.6981 6.92396 14.6756 7.00641C14.6689 7.03363 14.6889 7.07719 14.6622 7.09119C14.6489 7.10519 14.5906 7.09663 14.5931 7.02119ZM17.4239 6.4713C17.6039 6.55219 17.9431 6.51796 17.9281 6.24652C17.9263 6.20393 17.9232 6.1614 17.9189 6.11896C17.8822 6.03885 17.7822 6.05908 17.7597 6.14152C17.7522 6.16874 17.7722 6.2123 17.7456 6.2263C17.7306 6.2403 17.6731 6.23252 17.6756 6.15708C17.6756 6.13296 17.6564 6.1073 17.6456 6.09252C17.6339 6.08552 17.6272 6.08319 17.6056 6.08319C17.5806 6.08474 17.5814 6.09019 17.5672 6.11041C17.5614 6.13063 17.5531 6.15008 17.5531 6.17263C17.5497 6.19985 17.5389 6.20919 17.5181 6.21308C17.4947 6.21308 17.4997 6.21541 17.4806 6.20452C17.4689 6.19285 17.4556 6.18819 17.4556 6.16874C17.4553 6.14577 17.4513 6.12297 17.4439 6.10108C17.4328 6.08967 17.4178 6.08241 17.3989 6.0793C17.3006 6.0793 17.2939 6.1843 17.2997 6.22396C17.2939 6.23174 17.2897 6.41919 17.4239 6.4713ZM17.5456 5.41974C17.6097 5.58774 17.4964 5.74796 17.5639 5.7713C17.6247 5.79774 17.7114 5.59785 17.7431 5.41352C17.7806 5.26419 17.6664 4.95852 17.5047 4.89552C17.4064 4.87374 17.2664 4.92819 17.3114 5.05108C17.2889 5.11019 17.5097 5.31085 17.5456 5.41974ZM19.2081 9.35841C19.3339 9.35919 19.4789 9.09008 19.5406 8.8233C19.5747 8.45619 19.5172 8.23296 19.5072 8.01674C19.4972 7.80052 19.2464 6.1563 19.1947 5.99296C19.1339 5.68419 19.4389 5.95174 19.4056 5.77207C19.2997 5.54574 19.0372 5.21674 18.9539 5.01996C18.9039 4.93596 18.9256 4.8613 18.8139 4.99819C18.7114 5.31319 18.6756 5.56985 18.7147 5.76585C18.9797 7.05696 19.2514 8.1303 19.2081 9.35841ZM22.3381 5.98285C22.3672 6.06685 22.2939 6.3383 22.3547 6.36319C22.4106 6.39119 22.4889 6.17574 22.5181 5.97585C22.5339 5.86619 22.4481 5.48352 22.3006 5.41508C22.2106 5.39174 22.0831 5.45008 22.1247 5.58385C22.1039 5.64841 22.3056 5.86463 22.3381 5.98285ZM11.4056 8.82641C11.4597 8.84741 11.5339 8.68874 11.5622 8.54174C11.5781 8.46085 11.4947 8.18007 11.3539 8.12952C11.2672 8.11241 11.1489 8.13419 11.1856 8.25396C11.1814 8.31852 11.3772 8.3963 11.3889 8.54641C11.4172 8.60863 11.3472 8.80852 11.4056 8.82641ZM7.60889 5.23696C7.63639 5.30152 7.58139 5.50763 7.63889 5.52708C7.69139 5.54885 7.76556 5.38396 7.79306 5.2323C7.8089 5.1483 7.79639 4.86363 7.58806 4.8053C7.50223 4.78741 7.38306 4.83174 7.42223 4.93363C7.40223 4.98185 7.57806 5.14674 7.60889 5.23696ZM11.6939 6.1493C11.5347 6.23019 11.4722 6.46974 11.5722 6.60896C11.6647 6.73263 11.8114 6.68674 11.8314 6.68674C11.9881 6.70463 12.0806 6.41296 12.0806 6.41296C12.0806 6.41296 12.0856 6.3313 11.8997 6.48608C11.8214 6.50007 11.8114 6.47285 11.7922 6.43085C11.7735 6.35472 11.782 6.27495 11.8164 6.20374C11.8431 6.13141 11.7831 6.09952 11.6939 6.1493ZM12.8956 5.25252C12.9211 5.23759 12.9431 5.21785 12.96 5.19454C12.977 5.17124 12.9885 5.14489 12.9939 5.11719C13.0181 5.00363 12.8647 5.17085 12.8456 5.04408C12.8114 4.92663 12.9097 4.87841 13.0031 4.76485C13.0064 4.6863 13.0047 4.63108 12.8906 4.69485C12.8106 4.74541 12.6506 4.89941 12.6456 5.07674C12.6406 5.17708 12.6206 5.1763 12.6914 5.24008C12.7422 5.3093 12.7931 5.3023 12.8956 5.25252ZM13.9781 5.31319C14.0814 5.05185 14.0814 4.94141 14.0889 4.83019C14.0572 4.66141 13.9347 4.66685 13.8539 4.8543C13.8189 4.92508 13.7781 5.29763 13.7847 5.29763C13.7572 5.40885 13.9089 5.4563 13.9781 5.31319ZM20.7864 7.16663C20.7864 7.16663 19.9506 7.72119 19.9306 7.74063C19.8472 7.80907 19.8889 8.05174 19.9306 8.02374C19.9897 8.04552 20.8306 7.51274 20.8139 7.45052C20.8531 7.45208 20.8722 7.13863 20.7864 7.16663ZM20.6839 8.67085C20.7397 8.69885 20.8872 8.52852 20.8814 8.31619C20.8981 8.20652 20.8389 7.80441 20.6922 7.73596C20.6022 7.71263 20.4822 7.78419 20.5239 7.91719C20.5031 7.98096 20.6272 8.20419 20.6597 8.32241C20.6889 8.40719 20.6231 8.64596 20.6839 8.67085ZM15.9506 9.83441C15.9506 9.84141 16.0214 9.89819 16.1047 9.85307C16.2797 9.79007 16.3897 9.72941 16.6347 9.67885C16.6989 9.67808 16.6947 9.51708 16.5931 9.51163C16.4606 9.51785 16.3372 9.52408 16.2047 9.62208C16.1231 9.63919 16.1097 9.5933 16.0914 9.5513C16.0714 9.44785 16.1372 9.3763 16.1231 9.2993C16.1281 9.30396 16.0472 9.23474 15.9647 9.27363C15.9606 9.27363 15.7806 9.38719 15.7231 9.46652C15.6872 9.49219 15.6914 9.51396 15.7022 9.55674C15.7297 9.61585 15.7789 9.59796 15.8339 9.56996C15.9072 9.56063 15.9422 9.60574 15.9364 9.68741C15.9014 9.79085 15.9506 9.82896 15.9506 9.83441ZM21.4097 9.96352C21.3822 10.0079 21.3639 10.0747 21.4489 10.0957C21.6056 10.137 21.9664 9.91763 21.9664 9.91374C22.0247 9.87252 22.0056 9.79552 22.0006 9.79552C21.9664 9.75896 21.8897 9.77996 21.8381 9.77452C21.8139 9.77452 21.7322 9.76285 21.7714 9.69596C21.7989 9.65989 21.8208 9.62035 21.8364 9.57852C21.8606 9.52796 21.8397 9.49452 21.7514 9.4673C21.6622 9.45174 21.6264 9.45952 21.5272 9.4673C21.4739 9.47819 21.4556 9.49996 21.4456 9.56063C21.4497 9.65241 21.5089 9.64774 21.5706 9.6843C21.6064 9.72708 21.6297 9.76596 21.5681 9.83519C21.5097 9.88574 21.4689 9.91374 21.4097 9.96352ZM21.2497 14.0002H19.9997V13.6113C19.9997 13.5082 19.9558 13.4092 19.8777 13.3363C19.7995 13.2634 19.6936 13.2224 19.5831 13.2224C19.4726 13.2224 19.3666 13.2634 19.2884 13.3363C19.2103 13.4092 19.1664 13.5082 19.1664 13.6113V14.0002H9.1664C9.1664 14.0002 9.16639 14.778 11.6664 14.778H19.1664V15.1669C19.1664 15.27 19.2103 15.3689 19.2884 15.4418C19.3666 15.5148 19.4726 15.5557 19.5831 15.5557C19.6936 15.5557 19.7995 15.5148 19.8777 15.4418C19.9558 15.3689 19.9997 15.27 19.9997 15.1669V14.778H20.8331V15.1669C20.8331 15.27 20.877 15.3689 20.9551 15.4418C21.0332 15.5148 21.1392 15.5557 21.2497 15.5557C21.3602 15.5557 21.4662 15.5148 21.5444 15.4418C21.6225 15.3689 21.6664 15.27 21.6664 15.1669V14.3891C21.6664 14.2859 21.6225 14.187 21.5444 14.1141C21.4662 14.0412 21.3602 14.0002 21.2497 14.0002Z" fill="white"/>
</svg>
