<svg width="15" height="14" viewBox="0 0 15 14" fill="none" xmlns="http://www.w3.org/2000/svg">
<path d="M1.45096 6.24609H14.187C14.3559 6.24609 14.5179 6.31322 14.6374 6.43268C14.7569 6.55214 14.824 6.71414 14.824 6.88309C14.824 7.05203 14.7569 7.21407 14.6374 7.33353C14.5179 7.45299 14.3559 7.52008 14.187 7.52008H1.45096C1.28202 7.52008 1.11999 7.45299 1.00053 7.33353C0.881073 7.21407 0.813965 7.05203 0.813965 6.88309C0.813965 6.71414 0.881073 6.55214 1.00053 6.43268C1.11999 6.31322 1.28202 6.24609 1.45096 6.24609Z" fill="black"/>
<path d="M1.71387 6.88195L6.99586 12.1619C7.06204 12.2193 7.11568 12.2897 7.15346 12.3688C7.19123 12.4478 7.21233 12.5338 7.21544 12.6213C7.21854 12.7088 7.20359 12.7961 7.17151 12.8776C7.13943 12.9591 7.0909 13.0331 7.02896 13.0951C6.96702 13.157 6.893 13.2055 6.81149 13.2376C6.72999 13.2697 6.64274 13.2846 6.55521 13.2815C6.46767 13.2784 6.38172 13.2573 6.30269 13.2195C6.22366 13.1818 6.15326 13.1281 6.09587 13.0619L0.364868 7.33094C0.245669 7.21151 0.178711 7.04967 0.178711 6.88094C0.178711 6.71221 0.245669 6.55037 0.364868 6.43094L6.09587 0.69994C6.15326 0.63377 6.22366 0.580123 6.30269 0.542347C6.38172 0.504572 6.46767 0.483487 6.55521 0.480382C6.64274 0.477276 6.72999 0.492232 6.81149 0.524312C6.893 0.556392 6.96702 0.604907 7.02896 0.666844C7.0909 0.728781 7.13943 0.802806 7.17151 0.884312C7.20359 0.965819 7.21854 1.05306 7.21544 1.1406C7.21233 1.22814 7.19123 1.31409 7.15346 1.39312C7.11568 1.47214 7.06204 1.54256 6.99586 1.59995L1.71387 6.88195Z" fill="black"/>
</svg>
