<svg width="18" height="16" viewBox="0 0 18 16" fill="none" xmlns="http://www.w3.org/2000/svg">
<g opacity="0.68">
<path d="M16.2138 2.30762C11.7728 10.7306 6.07381 10.7226 1.63281 2.30762" stroke="#B1B2B1" stroke-linecap="round" stroke-linejoin="round"/>
<path d="M1 3.86668V11.7827C1 12.6224 1.33356 13.4276 1.9273 14.0214C2.52104 14.6151 3.32632 14.9487 4.166 14.9487H13.666C14.5057 14.9487 15.311 14.6151 15.9047 14.0214C16.4984 13.4276 16.832 12.6224 16.832 11.7827V3.86668C16.832 3.02701 16.4984 2.22172 15.9047 1.62798C15.311 1.03424 14.5057 0.700684 13.666 0.700684H4.166C3.75024 0.700684 3.33854 0.782575 2.95442 0.941681C2.57031 1.10079 2.22129 1.33399 1.9273 1.62798C1.33356 2.22172 1 3.02701 1 3.86668Z" stroke="#B1B2B1" stroke-linecap="round" stroke-linejoin="round"/>
</g>
</svg>
