<?xml version="1.0" encoding="utf-8"?>
<!-- Generator: Adobe Illustrator 18.1.1, SVG Export Plug-In . SVG Version: 6.00 Build 0)  -->
<svg version="1.1" id="Layer_1" xmlns="http://www.w3.org/2000/svg" xmlns:xlink="http://www.w3.org/1999/xlink" x="0px" y="0px"
	 viewBox="0 0 15000 10000" enable-background="new 0 0 15000 10000" xml:space="preserve">
<g id="Layer_2">
	<g>
		<g>
			<g>
				<defs>
					<path id="SVGID_1_" d="M13750,9750H1250c-550,0-1000-450-1000-1000V1250c0-550,450-1000,1000-1000h12500
						c550,0,1000,450,1000,1000v7500C14750,9300,14300,9750,13750,9750z"/>
				</defs>
				<clipPath id="SVGID_2_">
					<use xlink:href="#SVGID_1_"  overflow="visible"/>
				</clipPath>
				<rect x="250" y="9019.2" clip-path="url(#SVGID_2_)" fill="#B22334" width="14500" height="730.8"/>
			</g>
		</g>
		<g>
			<g>
				<defs>
					<path id="SVGID_3_" d="M13750,9750H1250c-550,0-1000-450-1000-1000V1250c0-550,450-1000,1000-1000h12500
						c550,0,1000,450,1000,1000v7500C14750,9300,14300,9750,13750,9750z"/>
				</defs>
				<clipPath id="SVGID_4_">
					<use xlink:href="#SVGID_3_"  overflow="visible"/>
				</clipPath>
				<rect x="250" y="8288.5" clip-path="url(#SVGID_4_)" fill="#FFFFFF" width="14500" height="730.8"/>
			</g>
		</g>
		<g>
			<g>
				<defs>
					<path id="SVGID_5_" d="M13750,9750H1250c-550,0-1000-450-1000-1000V1250c0-550,450-1000,1000-1000h12500
						c550,0,1000,450,1000,1000v7500C14750,9300,14300,9750,13750,9750z"/>
				</defs>
				<clipPath id="SVGID_6_">
					<use xlink:href="#SVGID_5_"  overflow="visible"/>
				</clipPath>
				<rect x="250" y="7557.7" clip-path="url(#SVGID_6_)" fill="#B22334" width="14500" height="730.8"/>
			</g>
		</g>
		<g>
			<g>
				<defs>
					<path id="SVGID_7_" d="M13750,9750H1250c-550,0-1000-450-1000-1000V1250c0-550,450-1000,1000-1000h12500
						c550,0,1000,450,1000,1000v7500C14750,9300,14300,9750,13750,9750z"/>
				</defs>
				<clipPath id="SVGID_8_">
					<use xlink:href="#SVGID_7_"  overflow="visible"/>
				</clipPath>
				<rect x="250" y="6826.9" clip-path="url(#SVGID_8_)" fill="#FFFFFF" width="14500" height="730.8"/>
			</g>
		</g>
		<g>
			<g>
				<defs>
					<path id="SVGID_9_" d="M13750,9750H1250c-550,0-1000-450-1000-1000V1250c0-550,450-1000,1000-1000h12500
						c550,0,1000,450,1000,1000v7500C14750,9300,14300,9750,13750,9750z"/>
				</defs>
				<clipPath id="SVGID_10_">
					<use xlink:href="#SVGID_9_"  overflow="visible"/>
				</clipPath>
				<rect x="250" y="6096.2" clip-path="url(#SVGID_10_)" fill="#B22334" width="14500" height="730.8"/>
			</g>
		</g>
		<g>
			<g>
				<defs>
					<path id="SVGID_11_" d="M13750,9750H1250c-550,0-1000-450-1000-1000V1250c0-550,450-1000,1000-1000h12500
						c550,0,1000,450,1000,1000v7500C14750,9300,14300,9750,13750,9750z"/>
				</defs>
				<clipPath id="SVGID_12_">
					<use xlink:href="#SVGID_11_"  overflow="visible"/>
				</clipPath>
				<rect x="250" y="5365.4" clip-path="url(#SVGID_12_)" fill="#FFFFFF" width="14500" height="730.8"/>
			</g>
		</g>
		<g>
			<g>
				<defs>
					<path id="SVGID_13_" d="M13750,9750H1250c-550,0-1000-450-1000-1000V1250c0-550,450-1000,1000-1000h12500
						c550,0,1000,450,1000,1000v7500C14750,9300,14300,9750,13750,9750z"/>
				</defs>
				<clipPath id="SVGID_14_">
					<use xlink:href="#SVGID_13_"  overflow="visible"/>
				</clipPath>
				<rect x="6050" y="4634.6" clip-path="url(#SVGID_14_)" fill="#B22334" width="8700" height="730.8"/>
			</g>
		</g>
		<g>
			<g>
				<defs>
					<path id="SVGID_15_" d="M13750,9750H1250c-550,0-1000-450-1000-1000V1250c0-550,450-1000,1000-1000h12500
						c550,0,1000,450,1000,1000v7500C14750,9300,14300,9750,13750,9750z"/>
				</defs>
				<clipPath id="SVGID_16_">
					<use xlink:href="#SVGID_15_"  overflow="visible"/>
				</clipPath>
				<rect x="6050" y="3903.8" clip-path="url(#SVGID_16_)" fill="#FFFFFF" width="8700" height="730.8"/>
			</g>
		</g>
		<g>
			<g>
				<defs>
					<path id="SVGID_17_" d="M13750,9750H1250c-550,0-1000-450-1000-1000V1250c0-550,450-1000,1000-1000h12500
						c550,0,1000,450,1000,1000v7500C14750,9300,14300,9750,13750,9750z"/>
				</defs>
				<clipPath id="SVGID_18_">
					<use xlink:href="#SVGID_17_"  overflow="visible"/>
				</clipPath>
				<rect x="6050" y="3173.1" clip-path="url(#SVGID_18_)" fill="#B22334" width="8700" height="730.8"/>
			</g>
		</g>
		<g>
			<g>
				<defs>
					<path id="SVGID_19_" d="M13750,9750H1250c-550,0-1000-450-1000-1000V1250c0-550,450-1000,1000-1000h12500
						c550,0,1000,450,1000,1000v7500C14750,9300,14300,9750,13750,9750z"/>
				</defs>
				<clipPath id="SVGID_20_">
					<use xlink:href="#SVGID_19_"  overflow="visible"/>
				</clipPath>
				<rect x="6050" y="2442.3" clip-path="url(#SVGID_20_)" fill="#FFFFFF" width="8700" height="730.8"/>
			</g>
		</g>
		<g>
			<g>
				<defs>
					<path id="SVGID_21_" d="M13750,9750H1250c-550,0-1000-450-1000-1000V1250c0-550,450-1000,1000-1000h12500
						c550,0,1000,450,1000,1000v7500C14750,9300,14300,9750,13750,9750z"/>
				</defs>
				<clipPath id="SVGID_22_">
					<use xlink:href="#SVGID_21_"  overflow="visible"/>
				</clipPath>
				<rect x="6050" y="1711.5" clip-path="url(#SVGID_22_)" fill="#B22334" width="8700" height="730.8"/>
			</g>
		</g>
		<g>
			<g>
				<defs>
					<path id="SVGID_23_" d="M13750,9750H1250c-550,0-1000-450-1000-1000V1250c0-550,450-1000,1000-1000h12500
						c550,0,1000,450,1000,1000v7500C14750,9300,14300,9750,13750,9750z"/>
				</defs>
				<clipPath id="SVGID_24_">
					<use xlink:href="#SVGID_23_"  overflow="visible"/>
				</clipPath>
				<rect x="6050" y="980.8" clip-path="url(#SVGID_24_)" fill="#FFFFFF" width="8700" height="730.8"/>
			</g>
		</g>
		<g>
			<g>
				<defs>
					<path id="SVGID_25_" d="M13750,9750H1250c-550,0-1000-450-1000-1000V1250c0-550,450-1000,1000-1000h12500
						c550,0,1000,450,1000,1000v7500C14750,9300,14300,9750,13750,9750z"/>
				</defs>
				<clipPath id="SVGID_26_">
					<use xlink:href="#SVGID_25_"  overflow="visible"/>
				</clipPath>
				<rect x="6050" y="250" clip-path="url(#SVGID_26_)" fill="#B22334" width="8700" height="730.8"/>
			</g>
		</g>
		<g>
			<g>
				<defs>
					<path id="SVGID_27_" d="M13750,9750H1250c-550,0-1000-450-1000-1000V1250c0-550,450-1000,1000-1000h12500
						c550,0,1000,450,1000,1000v7500C14750,9300,14300,9750,13750,9750z"/>
				</defs>
				<clipPath id="SVGID_28_">
					<use xlink:href="#SVGID_27_"  overflow="visible"/>
				</clipPath>
				<polygon clip-path="url(#SVGID_28_)" fill="#FFFFFF" points="851.9,830 1043.8,693 806.6,693 733.3,471.3 660,693 422.8,693 
					614.7,830.1 541.4,1051.8 733.3,914.7 925.2,1051.8 				"/>
			</g>
		</g>
		<g>
			<g>
				<defs>
					<path id="SVGID_29_" d="M13750,9750H1250c-550,0-1000-450-1000-1000V1250c0-550,450-1000,1000-1000h12500
						c550,0,1000,450,1000,1000v7500C14750,9300,14300,9750,13750,9750z"/>
				</defs>
				<clipPath id="SVGID_30_">
					<use xlink:href="#SVGID_29_"  overflow="visible"/>
				</clipPath>
				<polygon clip-path="url(#SVGID_30_)" fill="#FFFFFF" points="1818.6,830 2010.5,693 1773.3,693 1700,471.3 1626.7,693 
					1389.5,693 1581.4,830.1 1508.1,1051.8 1700,914.7 1891.9,1051.8 				"/>
			</g>
		</g>
		<g>
			<g>
				<defs>
					<path id="SVGID_31_" d="M13750,9750H1250c-550,0-1000-450-1000-1000V1250c0-550,450-1000,1000-1000h12500
						c550,0,1000,450,1000,1000v7500C14750,9300,14300,9750,13750,9750z"/>
				</defs>
				<clipPath id="SVGID_32_">
					<use xlink:href="#SVGID_31_"  overflow="visible"/>
				</clipPath>
				<polygon clip-path="url(#SVGID_32_)" fill="#FFFFFF" points="2785.3,830 2977.2,693 2740,693 2666.7,471.3 2593.4,693 
					2356.2,693 2548.1,830.1 2474.8,1051.8 2666.7,914.7 2858.6,1051.8 				"/>
			</g>
		</g>
		<g>
			<g>
				<defs>
					<path id="SVGID_33_" d="M13750,9750H1250c-550,0-1000-450-1000-1000V1250c0-550,450-1000,1000-1000h12500
						c550,0,1000,450,1000,1000v7500C14750,9300,14300,9750,13750,9750z"/>
				</defs>
				<clipPath id="SVGID_34_">
					<use xlink:href="#SVGID_33_"  overflow="visible"/>
				</clipPath>
				<polygon clip-path="url(#SVGID_34_)" fill="#FFFFFF" points="3751.9,830 3943.8,693 3706.6,693 3633.3,471.3 3560,693 
					3322.8,693 3514.7,830.1 3441.4,1051.8 3633.3,914.7 3825.2,1051.8 				"/>
			</g>
		</g>
		<g>
			<g>
				<defs>
					<path id="SVGID_35_" d="M13750,9750H1250c-550,0-1000-450-1000-1000V1250c0-550,450-1000,1000-1000h12500
						c550,0,1000,450,1000,1000v7500C14750,9300,14300,9750,13750,9750z"/>
				</defs>
				<clipPath id="SVGID_36_">
					<use xlink:href="#SVGID_35_"  overflow="visible"/>
				</clipPath>
				<polygon clip-path="url(#SVGID_36_)" fill="#FFFFFF" points="4718.6,830 4910.5,693 4673.3,693 4600,471.3 4526.7,693 
					4289.5,693 4481.4,830.1 4408.1,1051.8 4600,914.7 4791.9,1051.8 				"/>
			</g>
		</g>
		<g>
			<g>
				<defs>
					<path id="SVGID_37_" d="M13750,9750H1250c-550,0-1000-450-1000-1000V1250c0-550,450-1000,1000-1000h12500
						c550,0,1000,450,1000,1000v7500C14750,9300,14300,9750,13750,9750z"/>
				</defs>
				<clipPath id="SVGID_38_">
					<use xlink:href="#SVGID_37_"  overflow="visible"/>
				</clipPath>
				<polygon clip-path="url(#SVGID_38_)" fill="#FFFFFF" points="5685.3,830 5877.2,693 5640,693 5566.7,471.3 5493.4,693 
					5256.2,693 5448.1,830.1 5374.8,1051.8 5566.7,914.7 5758.6,1051.8 				"/>
			</g>
		</g>
		<g>
			<g>
				<defs>
					<path id="SVGID_39_" d="M13750,9750H1250c-550,0-1000-450-1000-1000V1250c0-550,450-1000,1000-1000h12500
						c550,0,1000,450,1000,1000v7500C14750,9300,14300,9750,13750,9750z"/>
				</defs>
				<clipPath id="SVGID_40_">
					<use xlink:href="#SVGID_39_"  overflow="visible"/>
				</clipPath>
				<polygon clip-path="url(#SVGID_40_)" fill="#FFFFFF" points="1335.3,1341.6 1527.2,1204.6 1290,1204.6 1216.7,982.9 
					1143.4,1204.6 906.2,1204.6 1098.1,1341.6 1024.8,1563.3 1216.7,1426.3 1408.6,1563.3 				"/>
			</g>
		</g>
		<g>
			<g>
				<defs>
					<path id="SVGID_41_" d="M13750,9750H1250c-550,0-1000-450-1000-1000V1250c0-550,450-1000,1000-1000h12500
						c550,0,1000,450,1000,1000v7500C14750,9300,14300,9750,13750,9750z"/>
				</defs>
				<clipPath id="SVGID_42_">
					<use xlink:href="#SVGID_41_"  overflow="visible"/>
				</clipPath>
				<polygon clip-path="url(#SVGID_42_)" fill="#FFFFFF" points="2301.9,1341.6 2493.8,1204.6 2256.6,1204.6 2183.3,982.9 
					2110,1204.6 1872.8,1204.6 2064.7,1341.6 1991.4,1563.3 2183.3,1426.3 2375.2,1563.3 				"/>
			</g>
		</g>
		<g>
			<g>
				<defs>
					<path id="SVGID_43_" d="M13750,9750H1250c-550,0-1000-450-1000-1000V1250c0-550,450-1000,1000-1000h12500
						c550,0,1000,450,1000,1000v7500C14750,9300,14300,9750,13750,9750z"/>
				</defs>
				<clipPath id="SVGID_44_">
					<use xlink:href="#SVGID_43_"  overflow="visible"/>
				</clipPath>
				<polygon clip-path="url(#SVGID_44_)" fill="#FFFFFF" points="3268.6,1341.6 3460.5,1204.6 3223.3,1204.6 3150,982.9 
					3076.7,1204.6 2839.5,1204.6 3031.4,1341.6 2958.1,1563.3 3150,1426.3 3341.9,1563.3 				"/>
			</g>
		</g>
		<g>
			<g>
				<defs>
					<path id="SVGID_45_" d="M13750,9750H1250c-550,0-1000-450-1000-1000V1250c0-550,450-1000,1000-1000h12500
						c550,0,1000,450,1000,1000v7500C14750,9300,14300,9750,13750,9750z"/>
				</defs>
				<clipPath id="SVGID_46_">
					<use xlink:href="#SVGID_45_"  overflow="visible"/>
				</clipPath>
				<polygon clip-path="url(#SVGID_46_)" fill="#FFFFFF" points="4235.3,1341.6 4427.2,1204.6 4190,1204.6 4116.7,982.9 
					4043.4,1204.6 3806.2,1204.6 3998.1,1341.6 3924.8,1563.3 4116.7,1426.3 4308.6,1563.3 				"/>
			</g>
		</g>
		<g>
			<g>
				<defs>
					<path id="SVGID_47_" d="M13750,9750H1250c-550,0-1000-450-1000-1000V1250c0-550,450-1000,1000-1000h12500
						c550,0,1000,450,1000,1000v7500C14750,9300,14300,9750,13750,9750z"/>
				</defs>
				<clipPath id="SVGID_48_">
					<use xlink:href="#SVGID_47_"  overflow="visible"/>
				</clipPath>
				<polygon clip-path="url(#SVGID_48_)" fill="#FFFFFF" points="5201.9,1341.6 5393.8,1204.6 5156.6,1204.6 5083.3,982.9 
					5010,1204.6 4772.8,1204.6 4964.7,1341.6 4891.4,1563.3 5083.3,1426.3 5275.2,1563.3 				"/>
			</g>
		</g>
		<g>
			<g>
				<defs>
					<path id="SVGID_49_" d="M13750,9750H1250c-550,0-1000-450-1000-1000V1250c0-550,450-1000,1000-1000h12500
						c550,0,1000,450,1000,1000v7500C14750,9300,14300,9750,13750,9750z"/>
				</defs>
				<clipPath id="SVGID_50_">
					<use xlink:href="#SVGID_49_"  overflow="visible"/>
				</clipPath>
				<polygon clip-path="url(#SVGID_50_)" fill="#FFFFFF" points="851.9,1855.2 1043.8,1718.2 806.6,1718.2 733.3,1496.5 660,1718.2 
					422.8,1718.2 614.7,1855.2 541.4,2076.9 733.3,1939.9 925.2,2076.9 				"/>
			</g>
		</g>
		<g>
			<g>
				<defs>
					<path id="SVGID_51_" d="M13750,9750H1250c-550,0-1000-450-1000-1000V1250c0-550,450-1000,1000-1000h12500
						c550,0,1000,450,1000,1000v7500C14750,9300,14300,9750,13750,9750z"/>
				</defs>
				<clipPath id="SVGID_52_">
					<use xlink:href="#SVGID_51_"  overflow="visible"/>
				</clipPath>
				<polygon clip-path="url(#SVGID_52_)" fill="#FFFFFF" points="1818.6,1855.2 2010.5,1718.2 1773.3,1718.2 1700,1496.5 
					1626.7,1718.2 1389.5,1718.2 1581.4,1855.2 1508.1,2076.9 1700,1939.9 1891.9,2076.9 				"/>
			</g>
		</g>
		<g>
			<g>
				<defs>
					<path id="SVGID_53_" d="M13750,9750H1250c-550,0-1000-450-1000-1000V1250c0-550,450-1000,1000-1000h12500
						c550,0,1000,450,1000,1000v7500C14750,9300,14300,9750,13750,9750z"/>
				</defs>
				<clipPath id="SVGID_54_">
					<use xlink:href="#SVGID_53_"  overflow="visible"/>
				</clipPath>
				<polygon clip-path="url(#SVGID_54_)" fill="#FFFFFF" points="2785.3,1855.2 2977.2,1718.2 2740,1718.2 2666.7,1496.5 
					2593.4,1718.2 2356.2,1718.2 2548.1,1855.2 2474.8,2076.9 2666.7,1939.9 2858.6,2076.9 				"/>
			</g>
		</g>
		<g>
			<g>
				<defs>
					<path id="SVGID_55_" d="M13750,9750H1250c-550,0-1000-450-1000-1000V1250c0-550,450-1000,1000-1000h12500
						c550,0,1000,450,1000,1000v7500C14750,9300,14300,9750,13750,9750z"/>
				</defs>
				<clipPath id="SVGID_56_">
					<use xlink:href="#SVGID_55_"  overflow="visible"/>
				</clipPath>
				<polygon clip-path="url(#SVGID_56_)" fill="#FFFFFF" points="3751.9,1855.2 3943.8,1718.2 3706.6,1718.2 3633.3,1496.5 
					3560,1718.2 3322.8,1718.2 3514.7,1855.2 3441.4,2076.9 3633.3,1939.9 3825.2,2076.9 				"/>
			</g>
		</g>
		<g>
			<g>
				<defs>
					<path id="SVGID_57_" d="M13750,9750H1250c-550,0-1000-450-1000-1000V1250c0-550,450-1000,1000-1000h12500
						c550,0,1000,450,1000,1000v7500C14750,9300,14300,9750,13750,9750z"/>
				</defs>
				<clipPath id="SVGID_58_">
					<use xlink:href="#SVGID_57_"  overflow="visible"/>
				</clipPath>
				<polygon clip-path="url(#SVGID_58_)" fill="#FFFFFF" points="4718.6,1855.2 4910.5,1718.2 4673.3,1718.2 4600,1496.5 
					4526.7,1718.2 4289.5,1718.2 4481.4,1855.2 4408.1,2076.9 4600,1939.9 4791.9,2076.9 				"/>
			</g>
		</g>
		<g>
			<g>
				<defs>
					<path id="SVGID_59_" d="M13750,9750H1250c-550,0-1000-450-1000-1000V1250c0-550,450-1000,1000-1000h12500
						c550,0,1000,450,1000,1000v7500C14750,9300,14300,9750,13750,9750z"/>
				</defs>
				<clipPath id="SVGID_60_">
					<use xlink:href="#SVGID_59_"  overflow="visible"/>
				</clipPath>
				<polygon clip-path="url(#SVGID_60_)" fill="#FFFFFF" points="5685.3,1855.2 5877.2,1718.2 5640,1718.2 5566.7,1496.5 
					5493.4,1718.2 5256.2,1718.2 5448.1,1855.2 5374.8,2076.9 5566.7,1939.9 5758.6,2076.9 				"/>
			</g>
		</g>
		<g>
			<g>
				<defs>
					<path id="SVGID_61_" d="M13750,9750H1250c-550,0-1000-450-1000-1000V1250c0-550,450-1000,1000-1000h12500
						c550,0,1000,450,1000,1000v7500C14750,9300,14300,9750,13750,9750z"/>
				</defs>
				<clipPath id="SVGID_62_">
					<use xlink:href="#SVGID_61_"  overflow="visible"/>
				</clipPath>
				<polygon clip-path="url(#SVGID_62_)" fill="#FFFFFF" points="1335.3,2366.8 1527.2,2229.7 1290,2229.7 1216.7,2008 
					1143.4,2229.7 906.2,2229.7 1098.1,2366.8 1024.8,2588.5 1216.7,2451.4 1408.6,2588.5 				"/>
			</g>
		</g>
		<g>
			<g>
				<defs>
					<path id="SVGID_63_" d="M13750,9750H1250c-550,0-1000-450-1000-1000V1250c0-550,450-1000,1000-1000h12500
						c550,0,1000,450,1000,1000v7500C14750,9300,14300,9750,13750,9750z"/>
				</defs>
				<clipPath id="SVGID_64_">
					<use xlink:href="#SVGID_63_"  overflow="visible"/>
				</clipPath>
				<polygon clip-path="url(#SVGID_64_)" fill="#FFFFFF" points="2301.9,2366.8 2493.8,2229.7 2256.6,2229.7 2183.3,2008 
					2110,2229.7 1872.8,2229.7 2064.7,2366.8 1991.4,2588.5 2183.3,2451.4 2375.2,2588.5 				"/>
			</g>
		</g>
		<g>
			<g>
				<defs>
					<path id="SVGID_65_" d="M13750,9750H1250c-550,0-1000-450-1000-1000V1250c0-550,450-1000,1000-1000h12500
						c550,0,1000,450,1000,1000v7500C14750,9300,14300,9750,13750,9750z"/>
				</defs>
				<clipPath id="SVGID_66_">
					<use xlink:href="#SVGID_65_"  overflow="visible"/>
				</clipPath>
				<polygon clip-path="url(#SVGID_66_)" fill="#FFFFFF" points="3268.6,2366.8 3460.5,2229.7 3223.3,2229.7 3150,2008 
					3076.7,2229.7 2839.5,2229.7 3031.4,2366.8 2958.1,2588.5 3150,2451.4 3341.9,2588.5 				"/>
			</g>
		</g>
		<g>
			<g>
				<defs>
					<path id="SVGID_67_" d="M13750,9750H1250c-550,0-1000-450-1000-1000V1250c0-550,450-1000,1000-1000h12500
						c550,0,1000,450,1000,1000v7500C14750,9300,14300,9750,13750,9750z"/>
				</defs>
				<clipPath id="SVGID_68_">
					<use xlink:href="#SVGID_67_"  overflow="visible"/>
				</clipPath>
				<polygon clip-path="url(#SVGID_68_)" fill="#FFFFFF" points="4235.3,2366.8 4427.2,2229.7 4190,2229.7 4116.7,2008 
					4043.4,2229.7 3806.2,2229.7 3998.1,2366.8 3924.8,2588.5 4116.7,2451.4 4308.6,2588.5 				"/>
			</g>
		</g>
		<g>
			<g>
				<defs>
					<path id="SVGID_69_" d="M13750,9750H1250c-550,0-1000-450-1000-1000V1250c0-550,450-1000,1000-1000h12500
						c550,0,1000,450,1000,1000v7500C14750,9300,14300,9750,13750,9750z"/>
				</defs>
				<clipPath id="SVGID_70_">
					<use xlink:href="#SVGID_69_"  overflow="visible"/>
				</clipPath>
				<polygon clip-path="url(#SVGID_70_)" fill="#FFFFFF" points="5201.9,2366.8 5393.8,2229.7 5156.6,2229.7 5083.3,2008 
					5010,2229.7 4772.8,2229.7 4964.7,2366.8 4891.4,2588.5 5083.3,2451.4 5275.2,2588.5 				"/>
			</g>
		</g>
		<g>
			<g>
				<defs>
					<path id="SVGID_71_" d="M13750,9750H1250c-550,0-1000-450-1000-1000V1250c0-550,450-1000,1000-1000h12500
						c550,0,1000,450,1000,1000v7500C14750,9300,14300,9750,13750,9750z"/>
				</defs>
				<clipPath id="SVGID_72_">
					<use xlink:href="#SVGID_71_"  overflow="visible"/>
				</clipPath>
				<polygon clip-path="url(#SVGID_72_)" fill="#FFFFFF" points="851.9,2838.6 1043.8,2701.6 806.6,2701.6 733.3,2479.9 660,2701.6 
					422.8,2701.6 614.7,2838.6 541.4,3060.3 733.3,2923.3 925.2,3060.3 				"/>
			</g>
		</g>
		<g>
			<g>
				<defs>
					<path id="SVGID_73_" d="M13750,9750H1250c-550,0-1000-450-1000-1000V1250c0-550,450-1000,1000-1000h12500
						c550,0,1000,450,1000,1000v7500C14750,9300,14300,9750,13750,9750z"/>
				</defs>
				<clipPath id="SVGID_74_">
					<use xlink:href="#SVGID_73_"  overflow="visible"/>
				</clipPath>
				<polygon clip-path="url(#SVGID_74_)" fill="#FFFFFF" points="1818.6,2838.6 2010.5,2701.6 1773.3,2701.6 1700,2479.9 
					1626.7,2701.6 1389.5,2701.6 1581.4,2838.6 1508.1,3060.3 1700,2923.3 1891.9,3060.3 				"/>
			</g>
		</g>
		<g>
			<g>
				<defs>
					<path id="SVGID_75_" d="M13750,9750H1250c-550,0-1000-450-1000-1000V1250c0-550,450-1000,1000-1000h12500
						c550,0,1000,450,1000,1000v7500C14750,9300,14300,9750,13750,9750z"/>
				</defs>
				<clipPath id="SVGID_76_">
					<use xlink:href="#SVGID_75_"  overflow="visible"/>
				</clipPath>
				<polygon clip-path="url(#SVGID_76_)" fill="#FFFFFF" points="2785.3,2838.6 2977.2,2701.6 2740,2701.6 2666.7,2479.9 
					2593.4,2701.6 2356.2,2701.6 2548.1,2838.6 2474.8,3060.3 2666.7,2923.3 2858.6,3060.3 				"/>
			</g>
		</g>
		<g>
			<g>
				<defs>
					<path id="SVGID_77_" d="M13750,9750H1250c-550,0-1000-450-1000-1000V1250c0-550,450-1000,1000-1000h12500
						c550,0,1000,450,1000,1000v7500C14750,9300,14300,9750,13750,9750z"/>
				</defs>
				<clipPath id="SVGID_78_">
					<use xlink:href="#SVGID_77_"  overflow="visible"/>
				</clipPath>
				<polygon clip-path="url(#SVGID_78_)" fill="#FFFFFF" points="3751.9,2838.6 3943.8,2701.6 3706.6,2701.6 3633.3,2479.9 
					3560,2701.6 3322.8,2701.6 3514.7,2838.6 3441.4,3060.3 3633.3,2923.3 3825.2,3060.3 				"/>
			</g>
		</g>
		<g>
			<g>
				<defs>
					<path id="SVGID_79_" d="M13750,9750H1250c-550,0-1000-450-1000-1000V1250c0-550,450-1000,1000-1000h12500
						c550,0,1000,450,1000,1000v7500C14750,9300,14300,9750,13750,9750z"/>
				</defs>
				<clipPath id="SVGID_80_">
					<use xlink:href="#SVGID_79_"  overflow="visible"/>
				</clipPath>
				<polygon clip-path="url(#SVGID_80_)" fill="#FFFFFF" points="4718.6,2838.6 4910.5,2701.6 4673.3,2701.6 4600,2479.9 
					4526.7,2701.6 4289.5,2701.6 4481.4,2838.6 4408.1,3060.3 4600,2923.3 4791.9,3060.3 				"/>
			</g>
		</g>
		<g>
			<g>
				<defs>
					<path id="SVGID_81_" d="M13750,9750H1250c-550,0-1000-450-1000-1000V1250c0-550,450-1000,1000-1000h12500
						c550,0,1000,450,1000,1000v7500C14750,9300,14300,9750,13750,9750z"/>
				</defs>
				<clipPath id="SVGID_82_">
					<use xlink:href="#SVGID_81_"  overflow="visible"/>
				</clipPath>
				<polygon clip-path="url(#SVGID_82_)" fill="#FFFFFF" points="5685.3,2838.6 5877.2,2701.6 5640,2701.6 5566.7,2479.9 
					5493.4,2701.6 5256.2,2701.6 5448.1,2838.6 5374.8,3060.3 5566.7,2923.3 5758.6,3060.3 				"/>
			</g>
		</g>
		<g>
			<g>
				<defs>
					<path id="SVGID_83_" d="M13750,9750H1250c-550,0-1000-450-1000-1000V1250c0-550,450-1000,1000-1000h12500
						c550,0,1000,450,1000,1000v7500C14750,9300,14300,9750,13750,9750z"/>
				</defs>
				<clipPath id="SVGID_84_">
					<use xlink:href="#SVGID_83_"  overflow="visible"/>
				</clipPath>
				<polygon clip-path="url(#SVGID_84_)" fill="#FFFFFF" points="1335.3,3350.2 1527.2,3213.1 1290,3213.1 1216.7,2991.4 
					1143.4,3213.1 906.2,3213.1 1098.1,3350.2 1024.8,3571.9 1216.7,3434.8 1408.6,3571.9 				"/>
			</g>
		</g>
		<g>
			<g>
				<defs>
					<path id="SVGID_85_" d="M13750,9750H1250c-550,0-1000-450-1000-1000V1250c0-550,450-1000,1000-1000h12500
						c550,0,1000,450,1000,1000v7500C14750,9300,14300,9750,13750,9750z"/>
				</defs>
				<clipPath id="SVGID_86_">
					<use xlink:href="#SVGID_85_"  overflow="visible"/>
				</clipPath>
				<polygon clip-path="url(#SVGID_86_)" fill="#FFFFFF" points="2301.9,3350.2 2493.8,3213.1 2256.6,3213.1 2183.3,2991.4 
					2110,3213.1 1872.8,3213.1 2064.7,3350.2 1991.4,3571.9 2183.3,3434.8 2375.2,3571.9 				"/>
			</g>
		</g>
		<g>
			<g>
				<defs>
					<path id="SVGID_87_" d="M13750,9750H1250c-550,0-1000-450-1000-1000V1250c0-550,450-1000,1000-1000h12500
						c550,0,1000,450,1000,1000v7500C14750,9300,14300,9750,13750,9750z"/>
				</defs>
				<clipPath id="SVGID_88_">
					<use xlink:href="#SVGID_87_"  overflow="visible"/>
				</clipPath>
				<polygon clip-path="url(#SVGID_88_)" fill="#FFFFFF" points="3268.6,3350.2 3460.5,3213.1 3223.3,3213.1 3150,2991.4 
					3076.7,3213.1 2839.5,3213.1 3031.4,3350.2 2958.1,3571.9 3150,3434.8 3341.9,3571.9 				"/>
			</g>
		</g>
		<g>
			<g>
				<defs>
					<path id="SVGID_89_" d="M13750,9750H1250c-550,0-1000-450-1000-1000V1250c0-550,450-1000,1000-1000h12500
						c550,0,1000,450,1000,1000v7500C14750,9300,14300,9750,13750,9750z"/>
				</defs>
				<clipPath id="SVGID_90_">
					<use xlink:href="#SVGID_89_"  overflow="visible"/>
				</clipPath>
				<polygon clip-path="url(#SVGID_90_)" fill="#FFFFFF" points="4235.3,3350.2 4427.2,3213.1 4190,3213.1 4116.7,2991.4 
					4043.4,3213.1 3806.2,3213.1 3998.1,3350.2 3924.8,3571.9 4116.7,3434.8 4308.6,3571.9 				"/>
			</g>
		</g>
		<g>
			<g>
				<defs>
					<path id="SVGID_91_" d="M13750,9750H1250c-550,0-1000-450-1000-1000V1250c0-550,450-1000,1000-1000h12500
						c550,0,1000,450,1000,1000v7500C14750,9300,14300,9750,13750,9750z"/>
				</defs>
				<clipPath id="SVGID_92_">
					<use xlink:href="#SVGID_91_"  overflow="visible"/>
				</clipPath>
				<polygon clip-path="url(#SVGID_92_)" fill="#FFFFFF" points="5201.9,3350.2 5393.8,3213.1 5156.6,3213.1 5083.3,2991.4 
					5010,3213.1 4772.8,3213.1 4964.7,3350.2 4891.4,3571.9 5083.3,3434.8 5275.2,3571.9 				"/>
			</g>
		</g>
		<g>
			<g>
				<defs>
					<path id="SVGID_93_" d="M13750,9750H1250c-550,0-1000-450-1000-1000V1250c0-550,450-1000,1000-1000h12500
						c550,0,1000,450,1000,1000v7500C14750,9300,14300,9750,13750,9750z"/>
				</defs>
				<clipPath id="SVGID_94_">
					<use xlink:href="#SVGID_93_"  overflow="visible"/>
				</clipPath>
				<polygon clip-path="url(#SVGID_94_)" fill="#FFFFFF" points="851.9,3863.8 1043.8,3726.8 806.6,3726.8 733.3,3505.1 660,3726.8 
					422.8,3726.8 614.7,3863.8 541.4,4085.5 733.3,3948.5 925.2,4085.5 				"/>
			</g>
		</g>
		<g>
			<g>
				<defs>
					<path id="SVGID_95_" d="M13750,9750H1250c-550,0-1000-450-1000-1000V1250c0-550,450-1000,1000-1000h12500
						c550,0,1000,450,1000,1000v7500C14750,9300,14300,9750,13750,9750z"/>
				</defs>
				<clipPath id="SVGID_96_">
					<use xlink:href="#SVGID_95_"  overflow="visible"/>
				</clipPath>
				<polygon clip-path="url(#SVGID_96_)" fill="#FFFFFF" points="1818.6,3863.8 2010.5,3726.8 1773.3,3726.8 1700,3505.1 
					1626.7,3726.8 1389.5,3726.8 1581.4,3863.8 1508.1,4085.5 1700,3948.5 1891.9,4085.5 				"/>
			</g>
		</g>
		<g>
			<g>
				<defs>
					<path id="SVGID_97_" d="M13750,9750H1250c-550,0-1000-450-1000-1000V1250c0-550,450-1000,1000-1000h12500
						c550,0,1000,450,1000,1000v7500C14750,9300,14300,9750,13750,9750z"/>
				</defs>
				<clipPath id="SVGID_98_">
					<use xlink:href="#SVGID_97_"  overflow="visible"/>
				</clipPath>
				<polygon clip-path="url(#SVGID_98_)" fill="#FFFFFF" points="2785.3,3863.8 2977.2,3726.8 2740,3726.8 2666.7,3505.1 
					2593.4,3726.8 2356.2,3726.8 2548.1,3863.8 2474.8,4085.5 2666.7,3948.5 2858.6,4085.5 				"/>
			</g>
		</g>
		<g>
			<g>
				<defs>
					<path id="SVGID_99_" d="M13750,9750H1250c-550,0-1000-450-1000-1000V1250c0-550,450-1000,1000-1000h12500
						c550,0,1000,450,1000,1000v7500C14750,9300,14300,9750,13750,9750z"/>
				</defs>
				<clipPath id="SVGID_100_">
					<use xlink:href="#SVGID_99_"  overflow="visible"/>
				</clipPath>
				<polygon clip-path="url(#SVGID_100_)" fill="#FFFFFF" points="3751.9,3863.8 3943.8,3726.8 3706.6,3726.8 3633.3,3505.1 
					3560,3726.8 3322.8,3726.8 3514.7,3863.8 3441.4,4085.5 3633.3,3948.5 3825.2,4085.5 				"/>
			</g>
		</g>
		<g>
			<g>
				<defs>
					<path id="SVGID_101_" d="M13750,9750H1250c-550,0-1000-450-1000-1000V1250c0-550,450-1000,1000-1000h12500
						c550,0,1000,450,1000,1000v7500C14750,9300,14300,9750,13750,9750z"/>
				</defs>
				<clipPath id="SVGID_102_">
					<use xlink:href="#SVGID_101_"  overflow="visible"/>
				</clipPath>
				<polygon clip-path="url(#SVGID_102_)" fill="#FFFFFF" points="4718.6,3863.8 4910.5,3726.8 4673.3,3726.8 4600,3505.1 
					4526.7,3726.8 4289.5,3726.8 4481.4,3863.8 4408.1,4085.5 4600,3948.5 4791.9,4085.5 				"/>
			</g>
		</g>
		<g>
			<g>
				<defs>
					<path id="SVGID_103_" d="M13750,9750H1250c-550,0-1000-450-1000-1000V1250c0-550,450-1000,1000-1000h12500
						c550,0,1000,450,1000,1000v7500C14750,9300,14300,9750,13750,9750z"/>
				</defs>
				<clipPath id="SVGID_104_">
					<use xlink:href="#SVGID_103_"  overflow="visible"/>
				</clipPath>
				<polygon clip-path="url(#SVGID_104_)" fill="#FFFFFF" points="5685.3,3863.8 5877.2,3726.8 5640,3726.8 5566.7,3505.1 
					5493.4,3726.8 5256.2,3726.8 5448.1,3863.8 5374.8,4085.5 5566.7,3948.5 5758.6,4085.5 				"/>
			</g>
		</g>
		<g>
			<g>
				<defs>
					<path id="SVGID_105_" d="M13750,9750H1250c-550,0-1000-450-1000-1000V1250c0-550,450-1000,1000-1000h12500
						c550,0,1000,450,1000,1000v7500C14750,9300,14300,9750,13750,9750z"/>
				</defs>
				<clipPath id="SVGID_106_">
					<use xlink:href="#SVGID_105_"  overflow="visible"/>
				</clipPath>
				<polygon clip-path="url(#SVGID_106_)" fill="#FFFFFF" points="1335.3,4375.3 1527.2,4238.3 1290,4238.3 1216.7,4016.6 
					1143.4,4238.3 906.2,4238.3 1098.1,4375.3 1024.8,4597 1216.7,4460 1408.6,4597 				"/>
			</g>
		</g>
		<g>
			<g>
				<defs>
					<path id="SVGID_107_" d="M13750,9750H1250c-550,0-1000-450-1000-1000V1250c0-550,450-1000,1000-1000h12500
						c550,0,1000,450,1000,1000v7500C14750,9300,14300,9750,13750,9750z"/>
				</defs>
				<clipPath id="SVGID_108_">
					<use xlink:href="#SVGID_107_"  overflow="visible"/>
				</clipPath>
				<polygon clip-path="url(#SVGID_108_)" fill="#FFFFFF" points="2301.9,4375.3 2493.8,4238.3 2256.6,4238.3 2183.3,4016.6 
					2110,4238.3 1872.8,4238.3 2064.7,4375.3 1991.4,4597 2183.3,4460 2375.2,4597 				"/>
			</g>
		</g>
		<g>
			<g>
				<defs>
					<path id="SVGID_109_" d="M13750,9750H1250c-550,0-1000-450-1000-1000V1250c0-550,450-1000,1000-1000h12500
						c550,0,1000,450,1000,1000v7500C14750,9300,14300,9750,13750,9750z"/>
				</defs>
				<clipPath id="SVGID_110_">
					<use xlink:href="#SVGID_109_"  overflow="visible"/>
				</clipPath>
				<polygon clip-path="url(#SVGID_110_)" fill="#FFFFFF" points="3268.6,4375.3 3460.5,4238.3 3223.3,4238.3 3150,4016.6 
					3076.7,4238.3 2839.5,4238.3 3031.4,4375.3 2958.1,4597 3150,4460 3341.9,4597 				"/>
			</g>
		</g>
		<g>
			<g>
				<defs>
					<path id="SVGID_111_" d="M13750,9750H1250c-550,0-1000-450-1000-1000V1250c0-550,450-1000,1000-1000h12500
						c550,0,1000,450,1000,1000v7500C14750,9300,14300,9750,13750,9750z"/>
				</defs>
				<clipPath id="SVGID_112_">
					<use xlink:href="#SVGID_111_"  overflow="visible"/>
				</clipPath>
				<polygon clip-path="url(#SVGID_112_)" fill="#FFFFFF" points="4235.3,4375.3 4427.2,4238.3 4190,4238.3 4116.7,4016.6 
					4043.4,4238.3 3806.2,4238.3 3998.1,4375.3 3924.8,4597 4116.7,4460 4308.6,4597 				"/>
			</g>
		</g>
		<g>
			<g>
				<defs>
					<path id="SVGID_113_" d="M13750,9750H1250c-550,0-1000-450-1000-1000V1250c0-550,450-1000,1000-1000h12500
						c550,0,1000,450,1000,1000v7500C14750,9300,14300,9750,13750,9750z"/>
				</defs>
				<clipPath id="SVGID_114_">
					<use xlink:href="#SVGID_113_"  overflow="visible"/>
				</clipPath>
				<polygon clip-path="url(#SVGID_114_)" fill="#FFFFFF" points="5201.9,4375.3 5393.8,4238.3 5156.6,4238.3 5083.3,4016.6 
					5010,4238.3 4772.8,4238.3 4964.7,4375.3 4891.4,4597 5083.3,4460 5275.2,4597 				"/>
			</g>
		</g>
		<g>
			<g>
				<defs>
					<path id="SVGID_115_" d="M13750,9750H1250c-550,0-1000-450-1000-1000V1250c0-550,450-1000,1000-1000h12500
						c550,0,1000,450,1000,1000v7500C14750,9300,14300,9750,13750,9750z"/>
				</defs>
				<clipPath id="SVGID_116_">
					<use xlink:href="#SVGID_115_"  overflow="visible"/>
				</clipPath>
				<polygon clip-path="url(#SVGID_116_)" fill="#FFFFFF" points="851.9,4922.4 1043.8,4785.3 806.6,4785.3 733.3,4563.6 
					660,4785.3 422.8,4785.3 614.7,4922.4 541.4,5144.1 733.3,5007 925.2,5144.1 				"/>
			</g>
		</g>
		<g>
			<g>
				<defs>
					<path id="SVGID_117_" d="M13750,9750H1250c-550,0-1000-450-1000-1000V1250c0-550,450-1000,1000-1000h12500
						c550,0,1000,450,1000,1000v7500C14750,9300,14300,9750,13750,9750z"/>
				</defs>
				<clipPath id="SVGID_118_">
					<use xlink:href="#SVGID_117_"  overflow="visible"/>
				</clipPath>
				<polygon clip-path="url(#SVGID_118_)" fill="#FFFFFF" points="1818.6,4922.4 2010.5,4785.3 1773.3,4785.3 1700,4563.6 
					1626.7,4785.3 1389.5,4785.3 1581.4,4922.4 1508.1,5144.1 1700,5007 1891.9,5144.1 				"/>
			</g>
		</g>
		<g>
			<g>
				<defs>
					<path id="SVGID_119_" d="M13750,9750H1250c-550,0-1000-450-1000-1000V1250c0-550,450-1000,1000-1000h12500
						c550,0,1000,450,1000,1000v7500C14750,9300,14300,9750,13750,9750z"/>
				</defs>
				<clipPath id="SVGID_120_">
					<use xlink:href="#SVGID_119_"  overflow="visible"/>
				</clipPath>
				<polygon clip-path="url(#SVGID_120_)" fill="#FFFFFF" points="2785.3,4922.4 2977.2,4785.3 2740,4785.3 2666.7,4563.6 
					2593.4,4785.3 2356.2,4785.3 2548.1,4922.4 2474.8,5144.1 2666.7,5007 2858.6,5144.1 				"/>
			</g>
		</g>
		<g>
			<g>
				<defs>
					<path id="SVGID_121_" d="M13750,9750H1250c-550,0-1000-450-1000-1000V1250c0-550,450-1000,1000-1000h12500
						c550,0,1000,450,1000,1000v7500C14750,9300,14300,9750,13750,9750z"/>
				</defs>
				<clipPath id="SVGID_122_">
					<use xlink:href="#SVGID_121_"  overflow="visible"/>
				</clipPath>
				<polygon clip-path="url(#SVGID_122_)" fill="#FFFFFF" points="3751.9,4922.4 3943.8,4785.3 3706.6,4785.3 3633.3,4563.6 
					3560,4785.3 3322.8,4785.3 3514.7,4922.4 3441.4,5144.1 3633.3,5007 3825.2,5144.1 				"/>
			</g>
		</g>
		<g>
			<g>
				<defs>
					<path id="SVGID_123_" d="M13750,9750H1250c-550,0-1000-450-1000-1000V1250c0-550,450-1000,1000-1000h12500
						c550,0,1000,450,1000,1000v7500C14750,9300,14300,9750,13750,9750z"/>
				</defs>
				<clipPath id="SVGID_124_">
					<use xlink:href="#SVGID_123_"  overflow="visible"/>
				</clipPath>
				<polygon clip-path="url(#SVGID_124_)" fill="#FFFFFF" points="4718.6,4922.4 4910.5,4785.3 4673.3,4785.3 4600,4563.6 
					4526.7,4785.3 4289.5,4785.3 4481.4,4922.4 4408.1,5144.1 4600,5007 4791.9,5144.1 				"/>
			</g>
		</g>
		<g>
			<g>
				<defs>
					<path id="SVGID_125_" d="M13750,9750H1250c-550,0-1000-450-1000-1000V1250c0-550,450-1000,1000-1000h12500
						c550,0,1000,450,1000,1000v7500C14750,9300,14300,9750,13750,9750z"/>
				</defs>
				<clipPath id="SVGID_126_">
					<use xlink:href="#SVGID_125_"  overflow="visible"/>
				</clipPath>
				<polygon clip-path="url(#SVGID_126_)" fill="#FFFFFF" points="5685.3,4922.4 5877.2,4785.3 5640,4785.3 5566.7,4563.6 
					5493.4,4785.3 5256.2,4785.3 5448.1,4922.4 5374.8,5144.1 5566.7,5007 5758.6,5144.1 				"/>
			</g>
		</g>
		<g>
			<g>
				<defs>
					<path id="SVGID_127_" d="M13750,9750H1250c-550,0-1000-450-1000-1000V1250c0-550,450-1000,1000-1000h12500
						c550,0,1000,450,1000,1000v7500C14750,9300,14300,9750,13750,9750z"/>
				</defs>
				<clipPath id="SVGID_128_">
					<use xlink:href="#SVGID_127_"  overflow="visible"/>
				</clipPath>
				<path clip-path="url(#SVGID_128_)" fill="#3C3B6E" d="M250,250v5115.4h5800V250H250z M5083.3,982.9l73.3,221.7h237.2l-191.9,137
					l73.3,221.7l-191.9-137l-191.9,137l73.3-221.7l-191.9-137H5010L5083.3,982.9z M5275.2,2588.5l-191.9-137l-191.9,137l73.3-221.7
					l-191.9-137H5010l73.3-221.7l73.3,221.7h237.2l-191.9,137L5275.2,2588.5z M5275.2,3571.9l-191.9-137l-191.9,137l73.3-221.7
					l-191.9-137H5010l73.3-221.7l73.3,221.7h237.2l-191.9,137L5275.2,3571.9z M4791.9,4085.5l-191.9-137l-191.9,137l73.3-221.7
					l-191.9-137h237.2l73.3-221.7l73.3,221.7h237.2l-191.9,137L4791.9,4085.5z M3825.2,4085.5l-191.9-137l-191.9,137l73.3-221.7
					l-191.9-137H3560l73.3-221.7l73.3,221.7h237.2l-191.9,137L3825.2,4085.5z M2858.6,4085.5l-191.9-137l-191.9,137l73.3-221.7
					l-191.9-137h237.2l73.3-221.7l73.3,221.7h237.2l-191.9,137L2858.6,4085.5z M1891.9,4085.5l-191.9-137l-191.9,137l73.3-221.7
					l-191.9-137h237.2l73.3-221.7l73.3,221.7h237.2l-191.9,137L1891.9,4085.5z M906.2,3213.1h237.2l73.3-221.7l73.3,221.7h237.2
					l-191.9,137l73.3,221.7l-191.9-137l-191.9,137l73.3-221.7L906.2,3213.1z M906.2,2229.7h237.2l73.3-221.7l73.3,221.7h237.2
					l-191.9,137l73.3,221.7l-191.9-137l-191.9,137l73.3-221.7L906.2,2229.7z M4791.9,2076.9l-191.9-137l-191.9,137l73.3-221.7
					l-191.9-137h237.2l73.3-221.7l73.3,221.7h237.2l-191.9,137L4791.9,2076.9z M4791.9,3060.3l-191.9-137l-191.9,137l73.3-221.7
					l-191.9-137h237.2l73.3-221.7l73.3,221.7h237.2l-191.9,137L4791.9,3060.3z M4427.2,2229.7l-191.9,137l73.3,221.7l-191.9-137
					l-191.9,137l73.3-221.7l-191.9-137h237.2l73.3-221.7l73.3,221.7H4427.2z M3825.2,3060.3l-191.9-137l-191.9,137l73.3-221.7
					l-191.9-137H3560l73.3-221.7l73.3,221.7h237.2l-191.9,137L3825.2,3060.3z M3825.2,2076.9l-191.9-137l-191.9,137l73.3-221.7
					l-191.9-137H3560l73.3-221.7l73.3,221.7h237.2l-191.9,137L3825.2,2076.9z M3460.5,2229.7l-191.9,137l73.3,221.7l-191.9-137
					l-191.9,137l73.3-221.7l-191.9-137h237.2L3150,2008l73.3,221.7H3460.5z M2858.6,3060.3l-191.9-137l-191.9,137l73.3-221.7
					l-191.9-137h237.2l73.3-221.7l73.3,221.7h237.2l-191.9,137L2858.6,3060.3z M2858.6,2076.9l-191.9-137l-191.9,137l73.3-221.7
					l-191.9-137h237.2l73.3-221.7l73.3,221.7h237.2l-191.9,137L2858.6,2076.9z M2493.8,2229.7l-191.9,137l73.3,221.7l-191.9-137
					l-191.9,137l73.3-221.7l-191.9-137H2110l73.3-221.7l73.3,221.7H2493.8z M1891.9,3060.3l-191.9-137l-191.9,137l73.3-221.7
					l-191.9-137h237.2l73.3-221.7l73.3,221.7h237.2l-191.9,137L1891.9,3060.3z M1891.9,2076.9l-191.9-137l-191.9,137l73.3-221.7
					l-191.9-137h237.2l73.3-221.7l73.3,221.7h237.2l-191.9,137L1891.9,2076.9z M1991.4,3571.9l73.3-221.7l-191.9-137H2110
					l73.3-221.7l73.3,221.7h237.2l-191.9,137l73.3,221.7l-191.9-137L1991.4,3571.9z M2958.1,3571.9l73.3-221.7l-191.9-137h237.2
					l73.3-221.7l73.3,221.7h237.2l-191.9,137l73.3,221.7l-191.9-137L2958.1,3571.9z M3924.8,3571.9l73.3-221.7l-191.9-137h237.2
					l73.3-221.7l73.3,221.7h237.2l-191.9,137l73.3,221.7l-191.9-137L3924.8,3571.9z M4526.7,693l73.3-221.7l73.3,221.7h237.2
					l-191.9,137l73.3,221.7l-191.9-137l-191.9,137l73.3-221.7l-191.9-137L4526.7,693L4526.7,693z M4116.7,982.9l73.3,221.7h237.2
					l-191.9,137l73.3,221.7l-191.9-137l-191.9,137l73.3-221.7l-191.9-137h237.2L4116.7,982.9z M3560,693l73.3-221.7l73.3,221.7
					h237.2l-191.9,137l73.3,221.7l-191.9-137l-191.9,137l73.3-221.7l-191.9-137L3560,693L3560,693z M3150,982.9l73.3,221.7h237.2
					l-191.9,137l73.3,221.7l-191.9-137l-191.9,137l73.3-221.7l-191.9-137h237.2L3150,982.9z M2593.4,693l73.3-221.7L2740,693h237.2
					l-191.9,137l73.3,221.7l-191.9-137l-191.9,137l73.3-221.7l-191.9-137L2593.4,693L2593.4,693z M2183.3,982.9l73.3,221.7h237.2
					l-191.9,137l73.3,221.7l-191.9-137l-191.9,137l73.3-221.7l-191.9-137H2110L2183.3,982.9z M1626.7,693l73.3-221.7l73.3,221.7
					h237.2l-191.9,137l73.3,221.7l-191.9-137l-191.9,137l73.3-221.7l-191.9-137L1626.7,693L1626.7,693z M1216.7,982.9l73.3,221.7
					h237.2l-191.9,137l73.3,221.7l-191.9-137l-191.9,137l73.3-221.7l-191.9-137h237.2L1216.7,982.9z M660,693l73.3-221.7L806.6,693
					h237.2L851.9,830l73.3,221.7l-191.9-137l-191.9,137L614.7,830L422.8,693H660z M660,1718.2l73.3-221.7l73.3,221.7h237.2
					l-191.9,137l73.3,221.7l-191.9-137l-191.9,137l73.3-221.7l-191.9-137H660z M660,2701.6l73.3-221.7l73.3,221.7h237.2l-191.9,137
					l73.3,221.7l-191.9-137l-191.9,137l73.3-221.7l-191.9-137H660z M660,3726.8l73.3-221.7l73.3,221.7h237.2l-191.9,137l73.3,221.7
					l-191.9-137l-191.9,137l73.3-221.7l-191.9-137H660z M925.2,5144.1l-191.9-137l-191.9,137l73.3-221.7l-191.9-137H660l73.3-221.7
					l73.3,221.7h237.2l-191.9,137L925.2,5144.1z M1024.8,4597l73.3-221.7l-191.9-137h237.2l73.3-221.7l73.3,221.7h237.2l-191.9,137
					l73.3,221.7l-191.9-137L1024.8,4597z M1891.9,5144.1L1700,5007l-191.9,137l73.3-221.7l-191.9-137h237.2l73.3-221.7l73.3,221.7
					h237.2l-191.9,137L1891.9,5144.1z M1991.4,4597l73.3-221.7l-191.9-137H2110l73.3-221.7l73.3,221.7h237.2l-191.9,137l73.3,221.7
					l-191.9-137L1991.4,4597z M2858.6,5144.1l-191.9-137l-191.9,137l73.3-221.7l-191.9-137h237.2l73.3-221.7l73.3,221.7h237.2
					l-191.9,137L2858.6,5144.1z M2958.1,4597l73.3-221.7l-191.9-137h237.2l73.3-221.7l73.3,221.7h237.2l-191.9,137l73.3,221.7
					L3150,4460L2958.1,4597z M3825.2,5144.1l-191.9-137l-191.9,137l73.3-221.7l-191.9-137H3560l73.3-221.7l73.3,221.7h237.2
					l-191.9,137L3825.2,5144.1z M3924.8,4597l73.3-221.7l-191.9-137h237.2l73.3-221.7l73.3,221.7h237.2l-191.9,137l73.3,221.7
					l-191.9-137L3924.8,4597z M4791.9,5144.1L4600,5007l-191.9,137l73.3-221.7l-191.9-137h237.2l73.3-221.7l73.3,221.7h237.2
					l-191.9,137L4791.9,5144.1z M4891.4,4597l73.3-221.7l-191.9-137H5010l73.3-221.7l73.3,221.7h237.2l-191.9,137l73.3,221.7
					l-191.9-137L4891.4,4597z M5758.6,5144.1l-191.9-137l-191.9,137l73.3-221.7l-191.9-137h237.2l73.3-221.7l73.3,221.7h237.2
					l-191.9,137L5758.6,5144.1z M5685.3,3863.8l73.3,221.7l-191.9-137l-191.9,137l73.3-221.7l-191.9-137h237.2l73.3-221.7
					l73.3,221.7h237.2L5685.3,3863.8z M5685.3,2838.6l73.3,221.7l-191.9-137l-191.9,137l73.3-221.7l-191.9-137h237.2l73.3-221.7
					l73.3,221.7h237.2L5685.3,2838.6z M5685.3,1855.2l73.3,221.7l-191.9-137l-191.9,137l73.3-221.7l-191.9-137h237.2l73.3-221.7
					l73.3,221.7h237.2L5685.3,1855.2z M5685.3,830l73.3,221.7l-191.9-137l-191.9,137l73.3-221.7l-191.9-137h237.2l73.3-221.7
					L5640,693h237.2L5685.3,830z"/>
			</g>
		</g>
		<g>
			<g>
				<defs>
					<path id="SVGID_129_" d="M13750,9750H1250c-550,0-1000-450-1000-1000V1250c0-550,450-1000,1000-1000h12500
						c550,0,1000,450,1000,1000v7500C14750,9300,14300,9750,13750,9750z"/>
				</defs>
				<clipPath id="SVGID_130_">
					<use xlink:href="#SVGID_129_"  overflow="visible"/>
				</clipPath>
				
					<ellipse id="_x3C_Clip_Group_x3E_" opacity="0.25" clip-path="url(#SVGID_130_)" fill="#FFFFFF" enable-background="new    " cx="7500" cy="1705.4" rx="7772.5" ry="2974.4"/>
			</g>
		</g>
	</g>
</g>
<g id="Layer_3">
</g>
</svg>
