<svg width="17" height="18" viewBox="0 0 17 18" fill="none" xmlns="http://www.w3.org/2000/svg">
<path d="M2.125 6.77767V10.8648C2.125 12.3664 2.125 12.3664 3.54167 13.3227L7.4375 15.5752C8.02542 15.9152 8.98167 15.9152 9.5625 15.5752L13.4583 13.3227C14.875 12.3664 14.875 12.3664 14.875 10.8718V6.77767C14.875 5.28309 14.875 5.28309 13.4583 4.32684L9.5625 2.07434C8.98167 1.73434 8.02542 1.73434 7.4375 2.07434L3.54167 4.32684C2.125 5.28309 2.125 5.28309 2.125 6.77767Z" stroke="#9C9C9C" stroke-linecap="round" stroke-linejoin="round"/>
<path d="M8.5 10.9497C9.6736 10.9497 10.625 9.99831 10.625 8.82471C10.625 7.6511 9.6736 6.69971 8.5 6.69971C7.32639 6.69971 6.375 7.6511 6.375 8.82471C6.375 9.99831 7.32639 10.9497 8.5 10.9497Z" stroke="#9C9C9C" stroke-linecap="round" stroke-linejoin="round"/>
</svg>
