<svg width="13" height="12" viewBox="0 0 13 12" fill="none" xmlns="http://www.w3.org/2000/svg">
<path d="M12.2561 10.5708L10.0561 8.37077C10.7688 7.46555 11.1563 6.34688 11.1561 5.19477C11.1561 4.16927 10.852 3.16681 10.2823 2.31414C9.71257 1.46147 8.90278 0.796893 7.95535 0.404453C7.00791 0.0120122 5.96538 -0.0906681 4.95959 0.109396C3.9538 0.309461 3.02992 0.803284 2.30479 1.52842C1.57965 2.25355 1.08583 3.17743 0.885763 4.18322C0.685699 5.18902 0.788379 6.23155 1.18082 7.17898C1.57326 8.12642 2.23783 8.9362 3.0905 9.50594C3.94317 10.0757 4.94564 10.3798 5.97114 10.3798C7.12325 10.3799 8.24192 9.99247 9.14714 9.27977L11.3471 11.4798C11.4067 11.544 11.4785 11.5955 11.5585 11.6313C11.6384 11.667 11.7247 11.6863 11.8122 11.688C11.8997 11.6896 11.9867 11.6736 12.0679 11.6409C12.1491 11.6081 12.2229 11.5593 12.2848 11.4974C12.3467 11.4355 12.3955 11.3618 12.4282 11.2806C12.461 11.1994 12.477 11.1124 12.4754 11.0248C12.4737 10.9373 12.4544 10.851 12.4186 10.7711C12.3829 10.6912 12.3313 10.6193 12.2671 10.5598L12.2561 10.5708ZM2.07814 5.19877C2.07814 4.4296 2.30622 3.6777 2.73355 3.03816C3.16088 2.39861 3.76826 1.90015 4.47888 1.6058C5.1895 1.31145 5.97145 1.23444 6.72584 1.38449C7.48023 1.53455 8.17319 1.90494 8.71707 2.44883C9.26096 2.99272 9.63135 3.68567 9.78141 4.44006C9.93147 5.19445 9.85445 5.9764 9.5601 6.68702C9.26575 7.39765 8.76729 8.00502 8.12775 8.43235C7.4882 8.85968 6.73631 9.08777 5.96714 9.08777C4.93571 9.08777 3.94653 8.67804 3.2172 7.94871C2.48787 7.21938 2.07814 6.2302 2.07814 5.19877Z" fill="#515151"/>
</svg>
