<svg width="19" height="18" viewBox="0 0 19 18" fill="none" xmlns="http://www.w3.org/2000/svg">
<path d="M10.75 0.750001C10.75 0.551089 10.829 0.360322 10.9697 0.21967C11.1103 0.0790183 11.3011 6.07493e-07 11.5 5.90104e-07L17.5 6.55671e-08C17.6989 4.81776e-08 17.8897 0.0790177 18.0303 0.219669C18.171 0.360321 18.25 0.551088 18.25 0.75L18.25 17.25C18.25 17.4489 18.171 17.6397 18.0303 17.7803C17.8897 17.921 17.6989 18 17.5 18L11.5 18C11.3011 18 11.1103 17.921 10.9697 17.7803C10.829 17.6397 10.75 17.4489 10.75 17.25C10.75 17.0511 10.829 16.8603 10.9697 16.7197C11.1103 16.579 11.3011 16.5 11.5 16.5L16.75 16.5L16.75 1.5L11.5 1.5C11.3011 1.5 11.1103 1.42098 10.9697 1.28033C10.829 1.13968 10.75 0.948912 10.75 0.750001ZM0.469375 9.53063L4.21937 13.2806C4.36011 13.4214 4.55098 13.5004 4.75 13.5004C4.94902 13.5004 5.13989 13.4214 5.28062 13.2806C5.42136 13.1399 5.50042 12.949 5.50042 12.75C5.50042 12.551 5.42136 12.3601 5.28062 12.2194L2.81031 9.75L11.5 9.75C11.6989 9.75 11.8897 9.67098 12.0303 9.53033C12.171 9.38968 12.25 9.19891 12.25 9C12.25 8.80109 12.171 8.61032 12.0303 8.46967C11.8897 8.32902 11.6989 8.25 11.5 8.25L2.81031 8.25L5.28062 5.78063C5.42136 5.6399 5.50042 5.44902 5.50042 5.25C5.50042 5.05098 5.42136 4.86011 5.28062 4.71938C5.13989 4.57864 4.94902 4.49958 4.75 4.49958C4.55098 4.49958 4.3601 4.57865 4.21937 4.71938L0.469375 8.46938C0.399642 8.53903 0.344321 8.62175 0.306579 8.7128C0.268836 8.80385 0.24941 8.90144 0.24941 9C0.24941 9.09856 0.268836 9.19616 0.306579 9.28721C0.344321 9.37825 0.399642 9.46097 0.469375 9.53063Z" fill="#DB0000"/>
</svg>
