<svg xmlns="http://www.w3.org/2000/svg" width="16.309" height="16.309" viewBox="0 0 16.309 16.309">
  <g id="ic_password" transform="translate(0.5 0.5)">
    <path id="Path_48998" data-name="Path 48998" d="M2,14.593c0-2.165,0-3.247.673-3.92S4.428,10,6.593,10h6.123c2.165,0,3.247,0,3.92.673s.673,1.755.673,3.92,0,3.247-.673,3.92-1.755.673-3.92.673H6.593c-2.165,0-3.247,0-3.92-.673S2,16.758,2,14.593Z" transform="translate(-2 -3.877)" fill="none" stroke="#b0b1b0" stroke-width="1"/>
    <path id="Path_48999" data-name="Path 48999" d="M6,8.123V6.593a4.593,4.593,0,0,1,9.04-1.148" transform="translate(-2.938 -2)" fill="none" stroke="#b0b1b0" stroke-linecap="round" stroke-width="1"/>
    <path id="Path_49000" data-name="Path 49000" d="M8,16h.007m3.048,0h.007m3.055,0h.007" transform="translate(-3.407 -5.284)" fill="none" stroke="#b0b1b0" stroke-linecap="round" stroke-linejoin="round" stroke-width="1"/>
  </g>
</svg>
